<svg id="圖層_114" data-name="圖層 114" xmlns="http://www.w3.org/2000/svg" xmlns:xlink="http://www.w3.org/1999/xlink" viewBox="0 0 591 4344">
  <defs>
    <style>
      .cls-1 {
        fill: #69c8ed;
      }

      .cls-2 {
        fill: url(#未命名漸層_75);
      }

      .cls-3 {
        fill: url(#linear-gradient);
      }

      .cls-4 {
        fill: url(#linear-gradient-2);
      }

      .cls-5 {
        fill: url(#linear-gradient-3);
      }

      .cls-6 {
        fill: url(#linear-gradient-4);
      }

      .cls-7 {
        fill: url(#linear-gradient-5);
      }

      .cls-8 {
        fill: url(#linear-gradient-6);
      }

      .cls-9 {
        fill: #c99556;
      }

      .cls-10 {
        fill: #e6e5a6;
      }

      .cls-11 {
        fill: #1882c4;
      }

      .cls-12 {
        fill: #1ea4f7;
      }

      .cls-13 {
        fill: url(#linear-gradient-7);
      }

      .cls-14 {
        fill: url(#linear-gradient-8);
      }

      .cls-15 {
        fill: #f7f6bc;
      }

      .cls-16 {
        fill: #5d5d5d;
      }

      .cls-17 {
        fill: #0f87d1;
      }

      .cls-18 {
        fill: url(#linear-gradient-9);
      }

      .cls-19 {
        fill: url(#linear-gradient-10);
      }

      .cls-20 {
        fill: url(#linear-gradient-11);
      }

      .cls-21 {
        fill: url(#linear-gradient-12);
      }

      .cls-22 {
        fill: url(#linear-gradient-13);
      }

      .cls-23 {
        fill: url(#linear-gradient-14);
      }

      .cls-24 {
        fill: url(#linear-gradient-15);
      }

      .cls-25 {
        fill: url(#linear-gradient-16);
      }

      .cls-26 {
        fill: url(#linear-gradient-17);
      }

      .cls-27 {
        fill: url(#linear-gradient-18);
      }

      .cls-28 {
        fill: url(#linear-gradient-19);
      }

      .cls-29 {
        fill: url(#linear-gradient-20);
      }

      .cls-30 {
        fill: url(#linear-gradient-21);
      }

      .cls-31 {
        fill: url(#linear-gradient-22);
      }

      .cls-32 {
        fill: url(#linear-gradient-23);
      }

      .cls-33 {
        fill: url(#linear-gradient-24);
      }

      .cls-34 {
        fill: url(#linear-gradient-25);
      }

      .cls-35 {
        fill: url(#linear-gradient-26);
      }

      .cls-36 {
        fill: url(#linear-gradient-27);
      }

      .cls-37 {
        fill: url(#linear-gradient-28);
      }

      .cls-38 {
        fill: url(#linear-gradient-29);
      }

      .cls-39 {
        fill: url(#linear-gradient-30);
      }

      .cls-40 {
        fill: url(#linear-gradient-31);
      }

      .cls-41 {
        fill: url(#linear-gradient-32);
      }

      .cls-42 {
        fill: url(#linear-gradient-33);
      }

      .cls-43 {
        fill: url(#linear-gradient-34);
      }

      .cls-44 {
        fill: url(#linear-gradient-35);
      }

      .cls-45 {
        fill: url(#linear-gradient-36);
      }

      .cls-46 {
        fill: url(#linear-gradient-37);
      }

      .cls-47 {
        fill: url(#linear-gradient-38);
      }

      .cls-48 {
        fill: url(#linear-gradient-39);
      }

      .cls-49 {
        fill: url(#linear-gradient-40);
      }

      .cls-50 {
        fill: url(#linear-gradient-41);
      }

      .cls-51 {
        fill: url(#linear-gradient-42);
      }

      .cls-52 {
        fill: url(#linear-gradient-43);
      }

      .cls-53 {
        fill: url(#linear-gradient-44);
      }

      .cls-54 {
        fill: url(#linear-gradient-45);
      }
    </style>
    <linearGradient id="未命名漸層_75" data-name="未命名漸層 75" x1="295.5" y1="4344" x2="295.5" gradientUnits="userSpaceOnUse">
      <stop offset="0" stop-color="#3bc5c0"/>
      <stop offset="1" stop-color="#60c4df"/>
    </linearGradient>
    <linearGradient id="linear-gradient" x1="3532.43" y1="974.52" x2="3532.43" y2="1054.69" gradientTransform="translate(1588.89 -820) rotate(90)" gradientUnits="userSpaceOnUse">
      <stop offset="0" stop-color="#fff"/>
      <stop offset="1" stop-color="#e0e2f7"/>
    </linearGradient>
    <linearGradient id="linear-gradient-2" x1="4340.25" y1="752.52" x2="4340.25" y2="832.69" xlink:href="#linear-gradient"/>
    <linearGradient id="linear-gradient-3" x1="4030.61" y1="602.52" x2="4030.61" y2="682.69" xlink:href="#linear-gradient"/>
    <linearGradient id="linear-gradient-4" x1="4295.07" y1="974.52" x2="4295.07" y2="1054.69" xlink:href="#linear-gradient"/>
    <linearGradient id="linear-gradient-5" x1="3838.83" y1="838.52" x2="3838.83" y2="918.69" xlink:href="#linear-gradient"/>
    <linearGradient id="linear-gradient-6" x1="3479.16" y1="602.52" x2="3479.16" y2="682.69" xlink:href="#linear-gradient"/>
    <linearGradient id="linear-gradient-7" x1="-1334.04" y1="1502.01" x2="-1286.47" y2="1502.01" gradientTransform="matrix(-0.09, -1, -1, 0.09, 1877.68, 1676.38)" gradientUnits="userSpaceOnUse">
      <stop offset="0" stop-color="#1b75de"/>
      <stop offset="0.08" stop-color="#1b7be1"/>
      <stop offset="0.41" stop-color="#1d92ed"/>
      <stop offset="0.72" stop-color="#1e9ff5"/>
      <stop offset="1" stop-color="#1ea4f7"/>
    </linearGradient>
    <linearGradient id="linear-gradient-8" x1="-1331.85" y1="1468.55" x2="-1247.71" y2="1468.55" xlink:href="#linear-gradient-7"/>
    <linearGradient id="linear-gradient-9" x1="2281.43" y1="988.52" x2="2281.43" y2="1068.69" xlink:href="#linear-gradient"/>
    <linearGradient id="linear-gradient-10" x1="3181.25" y1="894.52" x2="3181.25" y2="974.69" xlink:href="#linear-gradient"/>
    <linearGradient id="linear-gradient-11" x1="2950.61" y1="602.52" x2="2950.61" y2="682.69" xlink:href="#linear-gradient"/>
    <linearGradient id="linear-gradient-12" x1="2758.83" y1="838.52" x2="2758.83" y2="918.69" xlink:href="#linear-gradient"/>
    <linearGradient id="linear-gradient-13" x1="2320.16" y1="662.52" x2="2320.16" y2="742.69" xlink:href="#linear-gradient"/>
    <linearGradient id="linear-gradient-14" x1="-20.86" y1="1068.18" x2="26.7" y2="1068.18" xlink:href="#linear-gradient-7"/>
    <linearGradient id="linear-gradient-15" x1="-18.68" y1="1034.73" x2="65.46" y2="1034.73" xlink:href="#linear-gradient-7"/>
    <linearGradient id="linear-gradient-16" x1="-593.63" y1="1119.02" x2="-546.06" y2="1119.02" xlink:href="#linear-gradient-7"/>
    <linearGradient id="linear-gradient-17" x1="-591.44" y1="1085.57" x2="-507.3" y2="1085.57" xlink:href="#linear-gradient-7"/>
    <linearGradient id="linear-gradient-18" x1="-3538.81" y1="1547.78" x2="-3493.59" y2="1547.78" gradientTransform="matrix(-0.71, -0.71, -0.71, 0.71, -547.49, -229.02)" xlink:href="#linear-gradient-7"/>
    <linearGradient id="linear-gradient-19" x1="-3446.41" y1="1540.26" x2="-3482.34" y2="1613.99" gradientTransform="matrix(-0.71, -0.71, -0.71, 0.71, -547.49, -229.02)" gradientUnits="userSpaceOnUse">
      <stop offset="0" stop-color="#1ea4f7"/>
      <stop offset="0.28" stop-color="#1e9ff5"/>
      <stop offset="0.59" stop-color="#1d92ed"/>
      <stop offset="0.92" stop-color="#1b7be1"/>
      <stop offset="1" stop-color="#1b75de"/>
    </linearGradient>
    <linearGradient id="linear-gradient-20" x1="-3125.85" y1="1132" x2="-3080.64" y2="1132" gradientTransform="matrix(-0.71, -0.71, -0.71, 0.71, -547.49, -229.02)" xlink:href="#linear-gradient-7"/>
    <linearGradient id="linear-gradient-21" x1="-3033.46" y1="1124.48" x2="-3069.39" y2="1198.21" xlink:href="#linear-gradient-19"/>
    <linearGradient id="linear-gradient-22" x1="-2430.77" y1="794.71" x2="-2385.56" y2="794.71" gradientTransform="matrix(-0.71, -0.71, -0.71, 0.71, -547.49, -229.02)" xlink:href="#linear-gradient-7"/>
    <linearGradient id="linear-gradient-23" x1="-2338.37" y1="787.19" x2="-2374.31" y2="860.92" xlink:href="#linear-gradient-19"/>
    <linearGradient id="linear-gradient-24" x1="1372.43" y1="974.52" x2="1372.43" y2="1054.69" xlink:href="#linear-gradient"/>
    <linearGradient id="linear-gradient-25" x1="1870.61" y1="602.52" x2="1870.61" y2="682.69" xlink:href="#linear-gradient"/>
    <linearGradient id="linear-gradient-26" x1="1678.83" y1="838.52" x2="1678.83" y2="918.69" xlink:href="#linear-gradient"/>
    <linearGradient id="linear-gradient-27" x1="1319.16" y1="602.52" x2="1319.16" y2="682.69" xlink:href="#linear-gradient"/>
    <linearGradient id="linear-gradient-28" x1="800.94" y1="1273.17" x2="848.5" y2="1273.17" xlink:href="#linear-gradient-7"/>
    <linearGradient id="linear-gradient-29" x1="803.12" y1="1239.71" x2="887.27" y2="1239.71" xlink:href="#linear-gradient-7"/>
    <linearGradient id="linear-gradient-30" x1="292.43" y1="974.52" x2="292.43" y2="1054.69" xlink:href="#linear-gradient"/>
    <linearGradient id="linear-gradient-31" x1="1100.25" y1="752.52" x2="1100.25" y2="832.69" xlink:href="#linear-gradient"/>
    <linearGradient id="linear-gradient-32" x1="790.61" y1="602.52" x2="790.61" y2="682.69" xlink:href="#linear-gradient"/>
    <linearGradient id="linear-gradient-33" x1="1055.07" y1="974.52" x2="1055.07" y2="1054.69" xlink:href="#linear-gradient"/>
    <linearGradient id="linear-gradient-34" x1="598.83" y1="838.52" x2="598.83" y2="918.69" xlink:href="#linear-gradient"/>
    <linearGradient id="linear-gradient-35" x1="239.16" y1="602.52" x2="239.16" y2="682.69" xlink:href="#linear-gradient"/>
    <linearGradient id="linear-gradient-36" x1="2230.04" y1="854.56" x2="2277.61" y2="854.56" xlink:href="#linear-gradient-7"/>
    <linearGradient id="linear-gradient-37" x1="2232.23" y1="821.11" x2="2316.37" y2="821.11" xlink:href="#linear-gradient-7"/>
    <linearGradient id="linear-gradient-38" x1="1636.37" y1="875.22" x2="1683.93" y2="875.22" xlink:href="#linear-gradient-7"/>
    <linearGradient id="linear-gradient-39" x1="1638.55" y1="841.77" x2="1722.69" y2="841.77" xlink:href="#linear-gradient-7"/>
    <linearGradient id="linear-gradient-40" x1="-1988.83" y1="61.44" x2="-1943.61" y2="61.44" gradientTransform="matrix(-0.71, -0.71, -0.71, 0.71, -547.49, -229.02)" xlink:href="#linear-gradient-7"/>
    <linearGradient id="linear-gradient-41" x1="-1896.43" y1="53.92" x2="-1932.36" y2="127.65" xlink:href="#linear-gradient-19"/>
    <linearGradient id="linear-gradient-42" x1="-1645.17" y1="-430.71" x2="-1599.96" y2="-430.71" gradientTransform="matrix(-0.71, -0.71, -0.71, 0.71, -547.49, -229.02)" xlink:href="#linear-gradient-7"/>
    <linearGradient id="linear-gradient-43" x1="-1552.78" y1="-438.23" x2="-1588.71" y2="-364.49" xlink:href="#linear-gradient-19"/>
    <linearGradient id="linear-gradient-44" x1="-903.42" y1="-732.64" x2="-858.21" y2="-732.64" gradientTransform="matrix(-0.71, -0.71, -0.71, 0.71, -547.49, -229.02)" xlink:href="#linear-gradient-7"/>
    <linearGradient id="linear-gradient-45" x1="-811.02" y1="-740.16" x2="-846.96" y2="-666.43" xlink:href="#linear-gradient-19"/>
  </defs>
  <rect class="cls-1" width="591" height="4344"/>
  <g id="圖層_114_拷貝" data-name="圖層 114 拷貝">
    <rect class="cls-2" width="591" height="4344"/>
    <g id="圖層_2" data-name="圖層 2">
      <g id="圖層_2_拷貝_2" data-name="圖層 2 拷貝 2">
        <g id="圖層_2_拷貝" data-name="圖層 2 拷貝">
          <g id="圖層_2_拷貝_3" data-name="圖層 2 拷貝 3">
            <g id="圖層_2_拷貝_4" data-name="圖層 2 拷貝 4">
              <g id="圖層_7" data-name="圖層 7">
                <path class="cls-3" d="M591.28,2771.39a19.69,19.69,0,0,0-.22-2.79,51.62,51.62,0,0,0,13.73-87.32,35.31,35.31,0,0,0-33.22-47.52,34.5,34.5,0,0,0-4.57.33v156.46a19.66,19.66,0,0,0,24.28-19.16Z" transform="translate(-447 711)"/>
                <path class="cls-4" d="M813.28,3579.21a19.81,19.81,0,0,0-.22-2.79,51.62,51.62,0,0,0,13.73-87.32,35.31,35.31,0,0,0-33.22-47.52,34.5,34.5,0,0,0-4.57.33v156.46a19.66,19.66,0,0,0,24.28-19.16Z" transform="translate(-447 711)"/>
                <path class="cls-5" d="M963.28,3269.58a20,20,0,0,0-.22-2.8,51.62,51.62,0,0,0,13.73-87.32,35,35,0,0,0,2.18-12.12,35.4,35.4,0,0,0-35.4-35.4,36.27,36.27,0,0,0-4.57.33v156.46a19.62,19.62,0,0,0,24.28-19.15Z" transform="translate(-447 711)"/>
                <path class="cls-6" d="M591.28,3534a19.69,19.69,0,0,0-.22-2.79,51.62,51.62,0,0,0,13.73-87.32,35.31,35.31,0,0,0-33.22-47.52,36.28,36.28,0,0,0-4.57.32v156.47A19.66,19.66,0,0,0,591.28,3534Z" transform="translate(-447 711)"/>
                <path class="cls-7" d="M727.28,3077.79a19.69,19.69,0,0,0-.22-2.79,51.62,51.62,0,0,0,13.73-87.32,35.31,35.31,0,0,0-33.22-47.53,36.27,36.27,0,0,0-4.57.33V3097a20.2,20.2,0,0,0,4.57.55A19.72,19.72,0,0,0,727.28,3077.79Z" transform="translate(-447 711)"/>
                <path class="cls-8" d="M963.28,2718.12a19.81,19.81,0,0,0-.22-2.79A51.62,51.62,0,0,0,976.79,2628a35.31,35.31,0,0,0-33.22-47.52,34.5,34.5,0,0,0-4.57.33v156.46a19.66,19.66,0,0,0,24.28-19.16Z" transform="translate(-447 711)"/>
                <g id="圖層_12" data-name="圖層 12">
                  <g>
                    <g>
                      <path class="cls-9" d="M498.73,3087.33l-4,18.21a2.29,2.29,0,0,1,.88,1.59c.1,1-1.45,1.39-1.56.37,0-.07,0-.1,0-.16l-1.3,3.39c-.37.95-1.9.49-1.53-.47.47-1.2.93-2.4,1.39-3.61a2.19,2.19,0,0,0-1,.85,6.38,6.38,0,0,0-.5,3.38c0,1-1.57,1-1.59-.06-.05-2,.13-4.42,2.11-5.53a2.8,2.8,0,0,1,1.68-.33l4-18.1C497.42,3085.86,499,3086.33,498.73,3087.33Z" transform="translate(-447 711)"/>
                      <path class="cls-10" d="M497.1,3083.67a35.46,35.46,0,0,0,1.16-4.83c.79,3.12,3.47,19.1-2.83,19.13a2.37,2.37,0,0,1-2.1-2.14,6.81,6.81,0,0,1,.56-3.19C495,3089.53,496.17,3086.67,497.1,3083.67Z" transform="translate(-447 711)"/>
                    </g>
                    <g>
                      <path class="cls-11" d="M523.81,3087.79c-1.39-6.89-2.13-22.36,1.67-27.92,3.16-4.63,9.1,2.36,12.77,1.45,4.25-1.06,8.45-3.91,12.7-2.83s8,6.32,10.66,12.24,4.48,12.68,6.92,18.83a66.14,66.14,0,0,0,12,20.05c-4.09,3.07-9,1.63-12.94-2s-7.09-9.1-10.17-14.5q1.08,9.84,2.17,19.7c-5.94-6.84-10.2-17.56-11.64-29.31l1,23.71a101.49,101.49,0,0,1-7.43-20.87,61.39,61.39,0,0,1,.79,19.06c-3-5.17-4.8-12.33-4.81-19.54-.86,1.53-.78,3.94-.46,6a22.85,22.85,0,0,1,.55,6.16c-.25,2-1.66,3.87-2.76,2.83-.77-.73-1-2.4-1.08-3.87l-.93-11.82a17.52,17.52,0,0,1-1.15,11.53,56.57,56.57,0,0,1-3.66-15.84,19.1,19.1,0,0,1,.31,7.21c-.5,2.31-2.33,3.94-3.51,2.45A6.78,6.78,0,0,1,523.81,3087.79Z" transform="translate(-447 711)"/>
                      <path class="cls-12" d="M518.72,3043.13a23.67,23.67,0,0,0-2.47.9l-.83.38,0,0a27.41,27.41,0,0,0-9,7.58s0,0,0,0a51.69,51.69,0,0,0-8.61,16.9c-.15.48-.29,1-.42,1.47s-.28,1-.39,1.5a41.74,41.74,0,0,0,0,17.49c.37,2,.82,4.09,1.29,6.2.4,1.75.09,5.44.48,8.5.24,2.09.78,3.9,2.1,4.63,9.76,5.44,22-16.1,25.07-20.85,5.7-8.84,10.79-18.5,12.14-28.52a37.43,37.43,0,0,0,.35-6,10.61,10.61,0,0,0-6.65-9.85A18.85,18.85,0,0,0,518.72,3043.13Z" transform="translate(-447 711)"/>
                      <path class="cls-13" d="M496.83,3111.75c1.9-5.57,11.4-22.16,15.77-10.35,2.18,5.9,1.3,12.37,2.68,18.35,1.64,7.11,3.79,14.23,3.65,21.53,0,1.11-.27,2.47-1.33,2.83-1.41.48-2.49-1.26-3-2.67L510,3127.53a18,18,0,0,1-1.37,14.83c-.59,1-1.64,2.13-2.77,1.76-.95-.32-1.28-1.47-1.46-2.46q-1.61-8.72-3.23-17.44a21.92,21.92,0,0,1-2.45,9.24c-.78,1.51-2.46,3.13-3.93,2.27-1.08-.63-1.13-2.14-1.05-3.39C494.13,3125.39,494.58,3118.34,496.83,3111.75Z" transform="translate(-447 711)"/>
                      <path class="cls-14" d="M513.74,3082.1c.28-7.25,3.13-22,7.92-24.8,4-2.3,7.88,7.89,11.48,9.34,4.18,1.68,8.72,1.68,12.41,5.34s6,10.88,7.07,18,1.26,14.55,2.12,21.76a100.48,100.48,0,0,0,6.56,26.1c-4.49.29-8.71-4.13-11.53-9.92s-4.49-12.86-6.11-19.8l-2.49,19.61c-3.94-10-5.44-22.66-4.09-34.43q-2.25,11.28-4.51,22.56a128.73,128.73,0,0,1-2.12-24,56.06,56.06,0,0,1-3.62,18.14,46.13,46.13,0,0,1,0-21.1c-1.15.88-1.61,3.16-1.79,5.24s-.19,4.3-.89,6-2.42,2.55-3.2.9a7.82,7.82,0,0,1-.12-4.26q.92-5.76,1.84-11.52c0,4.1-1.48,8.11-3.7,9.95a64.62,64.62,0,0,1,.23-17c-.16,2.44-.37,5.05-1.36,6.87s-3.06,2.18-3.81.07A8.79,8.79,0,0,1,513.74,3082.1Z" transform="translate(-447 711)"/>
                      <path class="cls-12" d="M520.68,3039.29a22.06,22.06,0,0,0-2,3.84c-2.62,6.24-4.16,15.6-.17,20.28a8.39,8.39,0,0,0,5.72,2.81c5.57.62,10.32-2.44,13.74-6.85,3.67-4.76,5.79-11.1,5.67-16.12-.14-5.74-4.17-11.73-9.89-12.27l-.84-.05C527.88,3030.91,523.51,3035,520.68,3039.29Z" transform="translate(-447 711)"/>
                      <path class="cls-15" d="M520.68,3039.29a22.06,22.06,0,0,0-2,3.84,23.67,23.67,0,0,0-2.47.9l-.83.38,0,0c-7.42,3.67-13.54,12.63-16.58,20.16-3.17,7.84-3.33,16.71-1.87,24.82.37,2,.82,4.09,1.29,6.2.57,2.55-.13,5.13.25,7.63-.07-.45,1.62-2.4,1.9-2.89a11.26,11.26,0,0,0,1.27-3.2,29.66,29.66,0,0,1,2.28-6.81c2.23-4.66,5.32-8.85,8.2-13.12,2.45-3.61,5.17-8,6.11-12.31.11-.52.21-1,.32-1.5.73-3.73,1.18-6.59,4.25-9.76,2.74-2.88,6.1-5.26,8.15-8.66a13.33,13.33,0,0,0,.76-1.45,22.07,22.07,0,0,0,1.32-12.12c0-.16,0-.31-.08-.49C527.88,3030.91,523.51,3035,520.68,3039.29Z" transform="translate(-447 711)"/>
                      <path class="cls-10" d="M533,3031.17c-3.69,1.23-6.84,4.44-9.05,7.81a22.76,22.76,0,0,0-2,3.84,24.47,24.47,0,0,0-2.46.91c-.28.12-.56.24-.83.38l0,0c-7.41,3.66-13.53,12.62-16.57,20.15a41.18,41.18,0,0,0-2.62,18.91c.54,6.18,1.45,12.25-1.06,18.16.71-4-.73-8-1.44-11.94-1.46-8.11-1.3-17,1.87-24.82,3-7.53,9.16-16.49,16.58-20.16l0,0,.83-.38a23.67,23.67,0,0,1,2.47-.9,22.06,22.06,0,0,1,2-3.84c2.83-4.31,7.2-8.38,12.27-8.36C533,3031,533,3031.09,533,3031.17Z" transform="translate(-447 711)"/>
                      <path class="cls-9" d="M534.19,3024.48a10.43,10.43,0,0,0-2.57,2.52,6.54,6.54,0,0,0-1.4,4.28c.19,2.23,2.28,3.14,4.26,2C537.63,3031.49,535,3027.17,534.19,3024.48Z" transform="translate(-447 711)"/>
                      <path class="cls-16" d="M535.26,3039.21l0,.27a1.59,1.59,0,0,1-3.17.3l0-.27A1.6,1.6,0,0,1,535.26,3039.21Z" transform="translate(-447 711)"/>
                      <path class="cls-17" d="M526.89,3075.67c-1,1-2.22,2.14-2.52,3.62a2.69,2.69,0,0,0,.28,1.93,1.55,1.55,0,0,0,2.06.45c.13-.38.26-.77.4-1.15.34-.95,1.9-.63,1.56.34,0,.07-.06.16-.09.25a.63.63,0,0,1,0,.47,2.62,2.62,0,0,1-.48.83c-.81,2.32-1.9,6-.19,6.51,1.4.4,2.59-1.05,3.49-1.89a9.61,9.61,0,0,1,1.6-1.21l.06-.19c.26-.89,1.57-.7,1.58.09a.85.85,0,0,1-.27,1.11c-.7,2.4-1.31,5.31.58,7.25,3.22,3.29,6.6-1.48,7.4-4.31.28-1,1.84-.66,1.56.33-1,3.58-4.21,8.08-8.56,6.2-3.3-1.44-3.48-5-2.91-8.11-1.84,1.58-3.85,3.61-6.11,1.78a3.33,3.33,0,0,1-.89-3.22,22.07,22.07,0,0,1,.71-3.28,3,3,0,0,1-2.84-1.38c-1.75-2.73.52-5.62,2.4-7.49C526.44,3073.88,527.62,3075,526.89,3075.67Z" transform="translate(-447 711)"/>
                      <path class="cls-17" d="M504.52,3116.68a23.56,23.56,0,0,0-1.09,2.94c-.12.41-.85,2.29-.49,2.61.56.52,1.72-1.81,1.92-2.13.57-.89,1.15-1.78,1.72-2.68s1.77.17,1.23,1c-.06.08-.11.17-.16.25a36.35,36.35,0,0,0-1.19,6.54,33.19,33.19,0,0,0-.08,4.23q.06,1.11.18,2.22c.76,1.05,1.18,1,1.24-.22,1.09-1.38,1.45-5,1.83-6.73.51-2.3.89-4.62,1.2-7,.14-1,1.71-.74,1.58.28a78.9,78.9,0,0,1-2.43,11.7c-.43,1.5-.79,5-3,4.78s-2.08-3.4-2.16-4.92a35.41,35.41,0,0,1,.43-7.06c-.16.22-.31.45-.49.67a1.89,1.89,0,0,1-2.68.62c-.84-.68-.78-1.93-.6-2.88a23.9,23.9,0,0,1,1.62-4.95A.8.8,0,0,1,504.52,3116.68Z" transform="translate(-447 711)"/>
                    </g>
                    <g>
                      <path class="cls-9" d="M497.07,3080.27l-4,18.21a2.31,2.31,0,0,1,.88,1.59c.1,1-1.45,1.39-1.56.37a.94.94,0,0,0,0-.16l-1.3,3.39c-.36,1-1.89.5-1.52-.47l1.38-3.6a2.1,2.1,0,0,0-1,.84,6.29,6.29,0,0,0-.51,3.38c0,1-1.57,1-1.59-.06,0-2,.13-4.42,2.11-5.53a2.9,2.9,0,0,1,1.68-.33l4-18.1C495.76,3078.8,497.29,3079.27,497.07,3080.27Z" transform="translate(-447 711)"/>
                      <path class="cls-10" d="M495.44,3076.61a34.76,34.76,0,0,0,1.16-4.83c.79,3.13,3.47,19.11-2.83,19.13a2.36,2.36,0,0,1-2.1-2.14,6.81,6.81,0,0,1,.56-3.19C493.3,3082.47,494.51,3079.61,495.44,3076.61Z" transform="translate(-447 711)"/>
                    </g>
                  </g>
                </g>
              </g>
            </g>
          </g>
        </g>
      </g>
      <g id="圖層_2_拷貝_5" data-name="圖層 2 拷貝 5">
        <g id="圖層_2_拷貝_5-2" data-name="圖層 2 拷貝 5">
          <g id="圖層_2_拷貝_5-3" data-name="圖層 2 拷貝 5">
            <g id="圖層_2_拷貝_5-4" data-name="圖層 2 拷貝 5">
              <g id="圖層_2_拷貝_5-5" data-name="圖層 2 拷貝 5">
                <g id="圖層_7_拷貝" data-name="圖層 7 拷貝">
                  <path class="cls-18" d="M577.28,1520.39a19.69,19.69,0,0,0-.22-2.79,51.62,51.62,0,0,0,13.73-87.32,35.31,35.31,0,0,0-33.22-47.52,34.5,34.5,0,0,0-4.57.33v156.46a19.66,19.66,0,0,0,24.28-19.16Z" transform="translate(-447 711)"/>
                  <path class="cls-19" d="M671.28,2420.21a19.81,19.81,0,0,0-.22-2.79,51.62,51.62,0,0,0,13.73-87.32,35.31,35.31,0,0,0-33.22-47.52,34.5,34.5,0,0,0-4.57.33v156.46a19.66,19.66,0,0,0,24.28-19.16Z" transform="translate(-447 711)"/>
                  <path class="cls-20" d="M963.28,2189.58a20,20,0,0,0-.22-2.8,51.62,51.62,0,0,0,13.73-87.32,35,35,0,0,0,2.18-12.12,35.4,35.4,0,0,0-35.4-35.4,36.27,36.27,0,0,0-4.57.33v156.46a19.62,19.62,0,0,0,24.28-19.15Z" transform="translate(-447 711)"/>
                  <path class="cls-21" d="M727.28,1997.79a19.69,19.69,0,0,0-.22-2.79,51.62,51.62,0,0,0,13.73-87.32,35.31,35.31,0,0,0-33.22-47.53,36.27,36.27,0,0,0-4.57.33V2017a20.2,20.2,0,0,0,4.57.55A19.72,19.72,0,0,0,727.28,1997.79Z" transform="translate(-447 711)"/>
                  <path class="cls-22" d="M903.28,1559.12a19.81,19.81,0,0,0-.22-2.79A51.62,51.62,0,0,0,916.79,1469a35.31,35.31,0,0,0-33.22-47.52,34.5,34.5,0,0,0-4.57.33v156.46a19.66,19.66,0,0,0,24.28-19.16Z" transform="translate(-447 711)"/>
                  <g id="圖層_12_拷貝_3" data-name="圖層 12 拷貝 3">
                    <g id="圖層_12_拷貝_3-2" data-name="圖層 12 拷貝 3">
                      <g>
                        <g>
                          <path class="cls-9" d="M807.73,1739.33l-4,18.21a2.29,2.29,0,0,1,.88,1.59c.1,1-1.45,1.39-1.56.37,0-.07,0-.1,0-.16l-1.3,3.39c-.37,1-1.9.49-1.53-.47.47-1.2.93-2.4,1.39-3.61a2.19,2.19,0,0,0-1,.85,6.38,6.38,0,0,0-.5,3.38c0,1-1.57,1-1.59-.06,0-2,.13-4.42,2.11-5.53a2.8,2.8,0,0,1,1.68-.33l4-18.1C806.42,1737.86,808,1738.33,807.73,1739.33Z" transform="translate(-447 711)"/>
                          <path class="cls-10" d="M806.1,1735.67a35.46,35.46,0,0,0,1.16-4.83c.79,3.12,3.47,19.1-2.83,19.13a2.37,2.37,0,0,1-2.1-2.14,6.81,6.81,0,0,1,.56-3.19C804,1741.53,805.17,1738.67,806.1,1735.67Z" transform="translate(-447 711)"/>
                        </g>
                        <g>
                          <path class="cls-11" d="M832.81,1739.79c-1.39-6.89-2.13-22.36,1.67-27.92,3.16-4.63,9.1,2.36,12.77,1.45,4.25-1.06,8.45-3.91,12.7-2.83s8,6.32,10.66,12.24,4.48,12.68,6.92,18.83a66.14,66.14,0,0,0,12,20c-4.09,3.07-9,1.63-12.94-2s-7.09-9.1-10.17-14.5q1.08,9.84,2.17,19.7c-5.94-6.84-10.2-17.56-11.64-29.31l1,23.71a101.49,101.49,0,0,1-7.43-20.87,61.39,61.39,0,0,1,.79,19.06c-3-5.17-4.8-12.33-4.81-19.54-.86,1.53-.78,3.94-.46,6a22.85,22.85,0,0,1,.55,6.16c-.25,2-1.66,3.87-2.76,2.83-.77-.73-1-2.4-1.08-3.87l-.93-11.82a17.52,17.52,0,0,1-1.15,11.53,56.57,56.57,0,0,1-3.66-15.84,19.1,19.1,0,0,1,.31,7.21c-.5,2.31-2.33,3.94-3.51,2.45A6.78,6.78,0,0,1,832.81,1739.79Z" transform="translate(-447 711)"/>
                          <path class="cls-12" d="M827.72,1695.13a23.67,23.67,0,0,0-2.47.9l-.83.38,0,0a27.41,27.41,0,0,0-9,7.58s0,0,0,0a51.69,51.69,0,0,0-8.61,16.9c-.15.48-.29,1-.42,1.47s-.28,1-.39,1.5a41.74,41.74,0,0,0,0,17.49c.37,2,.82,4.09,1.29,6.2.4,1.75.09,5.44.48,8.5.24,2.09.78,3.9,2.1,4.63,9.76,5.44,22-16.1,25.07-20.85,5.7-8.84,10.79-18.5,12.14-28.52a37.43,37.43,0,0,0,.35-6,10.61,10.61,0,0,0-6.65-9.85A18.85,18.85,0,0,0,827.72,1695.13Z" transform="translate(-447 711)"/>
                          <path class="cls-23" d="M805.83,1763.75c1.9-5.57,11.4-22.16,15.77-10.35,2.18,5.9,1.3,12.37,2.68,18.35,1.64,7.11,3.79,14.23,3.65,21.53,0,1.11-.27,2.47-1.33,2.83-1.41.48-2.49-1.26-3-2.67L819,1779.53a18,18,0,0,1-1.37,14.83c-.59,1-1.64,2.13-2.77,1.76-.95-.32-1.28-1.47-1.46-2.46q-1.61-8.72-3.23-17.44a21.92,21.92,0,0,1-2.45,9.24c-.78,1.51-2.46,3.13-3.93,2.27-1.08-.63-1.13-2.14-1-3.39C803.13,1777.39,803.58,1770.34,805.83,1763.75Z" transform="translate(-447 711)"/>
                          <path class="cls-24" d="M822.74,1734.1c.28-7.25,3.13-22,7.92-24.8,4-2.3,7.88,7.89,11.48,9.34,4.18,1.68,8.72,1.68,12.41,5.34s6,10.88,7.07,18,1.26,14.55,2.12,21.76a100.48,100.48,0,0,0,6.56,26.1c-4.49.29-8.71-4.13-11.53-9.92s-4.49-12.86-6.11-19.8l-2.49,19.61c-3.94-10-5.44-22.66-4.09-34.43q-2.25,11.28-4.51,22.56a128.73,128.73,0,0,1-2.12-24,56.06,56.06,0,0,1-3.62,18.14,46.13,46.13,0,0,1,0-21.1c-1.15.88-1.61,3.16-1.79,5.24s-.19,4.3-.89,6-2.42,2.55-3.2.9a7.82,7.82,0,0,1-.12-4.26q.92-5.76,1.84-11.52c0,4.1-1.48,8.11-3.7,10a64.62,64.62,0,0,1,.23-17c-.16,2.44-.37,5-1.36,6.87s-3.06,2.18-3.81.07A8.79,8.79,0,0,1,822.74,1734.1Z" transform="translate(-447 711)"/>
                          <path class="cls-12" d="M829.68,1691.29a22.06,22.06,0,0,0-2,3.84c-2.62,6.24-4.16,15.6-.17,20.28a8.39,8.39,0,0,0,5.72,2.81c5.57.62,10.32-2.44,13.74-6.85,3.67-4.76,5.79-11.1,5.67-16.12-.14-5.74-4.17-11.73-9.89-12.27l-.84,0C836.88,1682.91,832.51,1687,829.68,1691.29Z" transform="translate(-447 711)"/>
                          <path class="cls-15" d="M829.68,1691.29a22.06,22.06,0,0,0-2,3.84,23.67,23.67,0,0,0-2.47.9l-.83.38,0,0c-7.42,3.67-13.54,12.63-16.58,20.16-3.17,7.84-3.33,16.71-1.87,24.82.37,2,.82,4.09,1.29,6.2.57,2.55-.13,5.13.25,7.63-.07-.45,1.62-2.4,1.9-2.89a11.26,11.26,0,0,0,1.27-3.2,29.66,29.66,0,0,1,2.28-6.81c2.23-4.66,5.32-8.85,8.2-13.12,2.45-3.61,5.17-8,6.11-12.31.11-.52.21-1,.32-1.5.73-3.73,1.18-6.59,4.25-9.76,2.74-2.88,6.1-5.26,8.15-8.66a13.33,13.33,0,0,0,.76-1.45,22.07,22.07,0,0,0,1.32-12.12c0-.16,0-.31-.08-.49C836.88,1682.91,832.51,1687,829.68,1691.29Z" transform="translate(-447 711)"/>
                          <path class="cls-10" d="M842,1683.17c-3.69,1.23-6.84,4.44-9.05,7.81a22.76,22.76,0,0,0-2,3.84,24.47,24.47,0,0,0-2.46.91c-.28.12-.56.24-.83.38l0,0c-7.41,3.66-13.53,12.62-16.57,20.15a41.18,41.18,0,0,0-2.62,18.91c.54,6.18,1.45,12.25-1.06,18.16.71-4-.73-8-1.44-11.94-1.46-8.11-1.3-17,1.87-24.82,3-7.53,9.16-16.49,16.58-20.16l0,0,.83-.38a23.67,23.67,0,0,1,2.47-.9,22.06,22.06,0,0,1,2-3.84c2.83-4.31,7.2-8.38,12.27-8.36Z" transform="translate(-447 711)"/>
                          <path class="cls-9" d="M843.19,1676.48a10.43,10.43,0,0,0-2.57,2.52,6.54,6.54,0,0,0-1.4,4.28c.19,2.23,2.28,3.14,4.26,2C846.63,1683.49,844,1679.17,843.19,1676.48Z" transform="translate(-447 711)"/>
                          <path class="cls-16" d="M844.26,1691.21l0,.27a1.59,1.59,0,0,1-3.17.3l0-.27A1.6,1.6,0,0,1,844.26,1691.21Z" transform="translate(-447 711)"/>
                          <path class="cls-17" d="M835.89,1727.67c-1,1-2.22,2.14-2.52,3.62a2.69,2.69,0,0,0,.28,1.93,1.55,1.55,0,0,0,2.06.45c.13-.38.26-.77.4-1.15.34-1,1.9-.63,1.56.34,0,.07-.06.16-.09.25a.63.63,0,0,1,0,.47,2.62,2.62,0,0,1-.48.83c-.81,2.32-1.9,6-.19,6.51,1.4.4,2.59-1.05,3.49-1.89a9.61,9.61,0,0,1,1.6-1.21l.06-.19c.26-.89,1.57-.7,1.58.09a.85.85,0,0,1-.27,1.11c-.7,2.4-1.31,5.31.58,7.25,3.22,3.29,6.6-1.48,7.4-4.31.28-1,1.84-.66,1.56.33-1,3.58-4.21,8.08-8.56,6.2-3.3-1.44-3.48-5-2.91-8.11-1.84,1.58-3.85,3.61-6.11,1.78a3.33,3.33,0,0,1-.89-3.22,22.07,22.07,0,0,1,.71-3.28,3,3,0,0,1-2.84-1.38c-1.75-2.73.52-5.62,2.4-7.49C835.44,1725.88,836.62,1727,835.89,1727.67Z" transform="translate(-447 711)"/>
                          <path class="cls-17" d="M813.52,1768.68a23.56,23.56,0,0,0-1.09,2.94c-.12.41-.85,2.29-.49,2.61.56.52,1.72-1.81,1.92-2.13.57-.89,1.15-1.78,1.72-2.68s1.77.17,1.23,1c-.06.08-.11.17-.16.25a36.35,36.35,0,0,0-1.19,6.54,33.19,33.19,0,0,0-.08,4.23q.06,1.11.18,2.22c.76,1,1.18,1,1.24-.22,1.09-1.38,1.45-5,1.83-6.73.51-2.3.89-4.62,1.2-7,.14-1,1.71-.74,1.58.28a78.9,78.9,0,0,1-2.43,11.7c-.43,1.5-.79,5-3,4.78s-2.08-3.4-2.16-4.92a35.41,35.41,0,0,1,.43-7.06c-.16.22-.31.45-.49.67a1.89,1.89,0,0,1-2.68.62c-.84-.68-.78-1.93-.6-2.88a23.9,23.9,0,0,1,1.62-5A.8.8,0,0,1,813.52,1768.68Z" transform="translate(-447 711)"/>
                        </g>
                        <g>
                          <path class="cls-9" d="M806.07,1732.27l-4,18.21a2.31,2.31,0,0,1,.88,1.59c.1,1-1.45,1.39-1.56.37a.94.94,0,0,0,0-.16l-1.3,3.39c-.36,1-1.89.5-1.52-.47l1.38-3.6a2.1,2.1,0,0,0-1,.84,6.29,6.29,0,0,0-.51,3.38c0,1-1.57,1-1.59-.06,0-2,.13-4.42,2.11-5.53a2.9,2.9,0,0,1,1.68-.33l4-18.1C804.76,1730.8,806.29,1731.27,806.07,1732.27Z" transform="translate(-447 711)"/>
                          <path class="cls-10" d="M804.44,1728.61a34.76,34.76,0,0,0,1.16-4.83c.79,3.13,3.47,19.11-2.83,19.13a2.36,2.36,0,0,1-2.1-2.14,6.81,6.81,0,0,1,.56-3.19C802.3,1734.47,803.51,1731.61,804.44,1728.61Z" transform="translate(-447 711)"/>
                        </g>
                      </g>
                      <g id="圖層_12_拷貝_3-3" data-name="圖層 12 拷貝 3">
                        <g>
                          <g>
                            <path class="cls-9" d="M810.73,2314.33l-4,18.21a2.29,2.29,0,0,1,.88,1.59c.1,1-1.45,1.39-1.56.37,0-.07,0-.1,0-.16l-1.3,3.39c-.37.95-1.9.49-1.53-.47.47-1.2.93-2.4,1.39-3.61a2.19,2.19,0,0,0-1,.85,6.38,6.38,0,0,0-.5,3.38c0,1-1.57,1-1.59-.06,0-2,.13-4.42,2.11-5.53a2.8,2.8,0,0,1,1.68-.33l4-18.1C809.42,2312.86,811,2313.33,810.73,2314.33Z" transform="translate(-447 711)"/>
                            <path class="cls-10" d="M809.1,2310.67a35.46,35.46,0,0,0,1.16-4.83c.79,3.12,3.47,19.1-2.83,19.13a2.37,2.37,0,0,1-2.1-2.14,6.81,6.81,0,0,1,.56-3.19C807,2316.53,808.17,2313.67,809.1,2310.67Z" transform="translate(-447 711)"/>
                          </g>
                          <g>
                            <path class="cls-11" d="M835.81,2314.79c-1.39-6.89-2.13-22.36,1.67-27.92,3.16-4.63,9.1,2.36,12.77,1.45,4.25-1.06,8.45-3.91,12.7-2.83s8,6.32,10.66,12.24,4.48,12.68,6.92,18.83a66.14,66.14,0,0,0,12,20.05c-4.09,3.07-9,1.63-12.94-2s-7.09-9.1-10.17-14.5q1.08,9.84,2.17,19.7c-5.94-6.84-10.2-17.56-11.64-29.31l1,23.71a101.49,101.49,0,0,1-7.43-20.87,61.39,61.39,0,0,1,.79,19.06c-3-5.17-4.8-12.33-4.81-19.54-.86,1.53-.78,3.94-.46,6a22.85,22.85,0,0,1,.55,6.16c-.25,2-1.66,3.87-2.76,2.83-.77-.73-1-2.4-1.08-3.87l-.93-11.82a17.52,17.52,0,0,1-1.15,11.53,56.57,56.57,0,0,1-3.66-15.84,19.1,19.1,0,0,1,.31,7.21c-.5,2.31-2.33,3.94-3.51,2.45A6.78,6.78,0,0,1,835.81,2314.79Z" transform="translate(-447 711)"/>
                            <path class="cls-12" d="M830.72,2270.13a23.67,23.67,0,0,0-2.47.9l-.83.38,0,0a27.41,27.41,0,0,0-9,7.58s0,0,0,0a51.69,51.69,0,0,0-8.61,16.9c-.15.48-.29,1-.42,1.47s-.28,1-.39,1.5a41.74,41.74,0,0,0,0,17.49c.37,2,.82,4.09,1.29,6.2.4,1.75.09,5.44.48,8.5.24,2.09.78,3.9,2.1,4.63,9.76,5.44,22-16.1,25.07-20.85,5.7-8.84,10.79-18.5,12.14-28.52a37.43,37.43,0,0,0,.35-6,10.61,10.61,0,0,0-6.65-9.85A18.85,18.85,0,0,0,830.72,2270.13Z" transform="translate(-447 711)"/>
                            <path class="cls-25" d="M808.83,2338.75c1.9-5.57,11.4-22.16,15.77-10.35,2.18,5.9,1.3,12.37,2.68,18.35,1.64,7.11,3.79,14.23,3.65,21.53,0,1.11-.27,2.47-1.33,2.83-1.41.48-2.49-1.26-3-2.67L822,2354.53a18,18,0,0,1-1.37,14.83c-.59,1-1.64,2.13-2.77,1.76-.95-.32-1.28-1.47-1.46-2.46q-1.61-8.72-3.23-17.44a21.92,21.92,0,0,1-2.45,9.24c-.78,1.51-2.46,3.13-3.93,2.27-1.08-.63-1.13-2.14-1-3.39C806.13,2352.39,806.58,2345.34,808.83,2338.75Z" transform="translate(-447 711)"/>
                            <path class="cls-26" d="M825.74,2309.1c.28-7.25,3.13-22,7.92-24.8,4-2.3,7.88,7.89,11.48,9.34,4.18,1.68,8.72,1.68,12.41,5.34s6,10.88,7.07,18,1.26,14.55,2.12,21.76a100.48,100.48,0,0,0,6.56,26.1c-4.49.29-8.71-4.13-11.53-9.92s-4.49-12.86-6.11-19.8l-2.49,19.61c-3.94-10-5.44-22.66-4.09-34.43q-2.25,11.28-4.51,22.56a128.73,128.73,0,0,1-2.12-24,56.06,56.06,0,0,1-3.62,18.14,46.13,46.13,0,0,1,0-21.1c-1.15.88-1.61,3.16-1.79,5.24s-.19,4.3-.89,6-2.42,2.55-3.2.9a7.82,7.82,0,0,1-.12-4.26q.92-5.76,1.84-11.52c0,4.1-1.48,8.11-3.7,9.95a64.62,64.62,0,0,1,.23-17c-.16,2.44-.37,5.05-1.36,6.87s-3.06,2.18-3.81.07A8.79,8.79,0,0,1,825.74,2309.1Z" transform="translate(-447 711)"/>
                            <path class="cls-12" d="M832.68,2266.29a22.06,22.06,0,0,0-2,3.84c-2.62,6.24-4.16,15.6-.17,20.28a8.39,8.39,0,0,0,5.72,2.81c5.57.62,10.32-2.44,13.74-6.85,3.67-4.76,5.79-11.1,5.67-16.12-.14-5.74-4.17-11.73-9.89-12.27l-.84-.05C839.88,2257.91,835.51,2262,832.68,2266.29Z" transform="translate(-447 711)"/>
                            <path class="cls-15" d="M832.68,2266.29a22.06,22.06,0,0,0-2,3.84,23.67,23.67,0,0,0-2.47.9l-.83.38,0,0c-7.42,3.67-13.54,12.63-16.58,20.16-3.17,7.84-3.33,16.71-1.87,24.82.37,2,.82,4.09,1.29,6.2.57,2.55-.13,5.13.25,7.63-.07-.45,1.62-2.4,1.9-2.89a11.26,11.26,0,0,0,1.27-3.2,29.66,29.66,0,0,1,2.28-6.81c2.23-4.66,5.32-8.85,8.2-13.12,2.45-3.61,5.17-8,6.11-12.31.11-.52.21-1,.32-1.5.73-3.73,1.18-6.59,4.25-9.76,2.74-2.88,6.1-5.26,8.15-8.66a13.33,13.33,0,0,0,.76-1.45,22.07,22.07,0,0,0,1.32-12.12c0-.16,0-.31-.08-.49C839.88,2257.91,835.51,2262,832.68,2266.29Z" transform="translate(-447 711)"/>
                            <path class="cls-10" d="M845,2258.17c-3.69,1.23-6.84,4.44-9.05,7.81a22.76,22.76,0,0,0-2,3.84,24.47,24.47,0,0,0-2.46.91c-.28.12-.56.24-.83.38l0,0c-7.41,3.66-13.53,12.62-16.57,20.15a41.18,41.18,0,0,0-2.62,18.91c.54,6.18,1.45,12.25-1.06,18.16.71-4-.73-8-1.44-11.94-1.46-8.11-1.3-17,1.87-24.82,3-7.53,9.16-16.49,16.58-20.16l0,0,.83-.38a23.67,23.67,0,0,1,2.47-.9,22.06,22.06,0,0,1,2-3.84c2.83-4.31,7.2-8.38,12.27-8.36C845,2258,845,2258.09,845,2258.17Z" transform="translate(-447 711)"/>
                            <path class="cls-9" d="M846.19,2251.48a10.43,10.43,0,0,0-2.57,2.52,6.54,6.54,0,0,0-1.4,4.28c.19,2.23,2.28,3.14,4.26,2C849.63,2258.49,847,2254.17,846.19,2251.48Z" transform="translate(-447 711)"/>
                            <path class="cls-16" d="M847.26,2266.21l0,.27a1.59,1.59,0,0,1-3.17.3l0-.27A1.6,1.6,0,0,1,847.26,2266.21Z" transform="translate(-447 711)"/>
                            <path class="cls-17" d="M838.89,2302.67c-1,1-2.22,2.14-2.52,3.62a2.69,2.69,0,0,0,.28,1.93,1.55,1.55,0,0,0,2.06.45c.13-.38.26-.77.4-1.15.34-.95,1.9-.63,1.56.34,0,.07-.06.16-.09.25a.63.63,0,0,1,0,.47,2.62,2.62,0,0,1-.48.83c-.81,2.32-1.9,6-.19,6.51,1.4.4,2.59-1.05,3.49-1.89a9.61,9.61,0,0,1,1.6-1.21l.06-.19c.26-.89,1.57-.7,1.58.09a.85.85,0,0,1-.27,1.11c-.7,2.4-1.31,5.31.58,7.25,3.22,3.29,6.6-1.48,7.4-4.31.28-1,1.84-.66,1.56.33-1,3.58-4.21,8.08-8.56,6.2-3.3-1.44-3.48-5-2.91-8.11-1.84,1.58-3.85,3.61-6.11,1.78a3.33,3.33,0,0,1-.89-3.22,22.07,22.07,0,0,1,.71-3.28,3,3,0,0,1-2.84-1.38c-1.75-2.73.52-5.62,2.4-7.49C838.44,2300.88,839.62,2302,838.89,2302.67Z" transform="translate(-447 711)"/>
                            <path class="cls-17" d="M816.52,2343.68a23.56,23.56,0,0,0-1.09,2.94c-.12.41-.85,2.29-.49,2.61.56.52,1.72-1.81,1.92-2.13.57-.89,1.15-1.78,1.72-2.68s1.77.17,1.23,1c-.06.08-.11.17-.16.25a36.35,36.35,0,0,0-1.19,6.54,33.19,33.19,0,0,0-.08,4.23q.06,1.11.18,2.22c.76,1.05,1.18,1,1.24-.22,1.09-1.38,1.45-5,1.83-6.73.51-2.3.89-4.62,1.2-7,.14-1,1.71-.74,1.58.28a78.9,78.9,0,0,1-2.43,11.7c-.43,1.5-.79,5-3,4.78s-2.08-3.4-2.16-4.92a35.41,35.41,0,0,1,.43-7.06c-.16.22-.31.45-.49.67a1.89,1.89,0,0,1-2.68.62c-.84-.68-.78-1.93-.6-2.88a23.9,23.9,0,0,1,1.62-4.95A.8.8,0,0,1,816.52,2343.68Z" transform="translate(-447 711)"/>
                          </g>
                          <g>
                            <path class="cls-9" d="M809.07,2307.27l-4,18.21a2.31,2.31,0,0,1,.88,1.59c.1,1-1.45,1.39-1.56.37a.94.94,0,0,0,0-.16l-1.3,3.39c-.36,1-1.89.5-1.52-.47l1.38-3.6a2.1,2.1,0,0,0-1,.84,6.29,6.29,0,0,0-.51,3.38c0,1-1.57,1-1.59-.06,0-2,.13-4.42,2.11-5.53a2.9,2.9,0,0,1,1.68-.33l4-18.1C807.76,2305.8,809.29,2306.27,809.07,2307.27Z" transform="translate(-447 711)"/>
                            <path class="cls-10" d="M807.44,2303.61a34.76,34.76,0,0,0,1.16-4.83c.79,3.13,3.47,19.11-2.83,19.13a2.36,2.36,0,0,1-2.1-2.14,6.81,6.81,0,0,1,.56-3.19C805.3,2309.47,806.51,2306.61,807.44,2303.61Z" transform="translate(-447 711)"/>
                          </g>
                        </g>
                      </g>
                    </g>
                  </g>
                </g>
              </g>
            </g>
          </g>
        </g>
        <g id="圖層_40" data-name="圖層 40">
          <g>
            <path class="cls-11" d="M825.91,3323c5.06-4.7,13.1-17.06,10.37-24.57-2.27-6.24-13.67-4.88-18.32-8.39-5.4-4.08-9.93-9.63-16.3-11.92-6.58-2.37-14-.77-20.31,2.2s-12,7.21-18.12,10.51a67.36,67.36,0,0,1-25.75,7.69c4.26,5.65,11.72,8.14,18.79,8.1s13.94-2.26,20.67-4.45L765,3317a45.25,45.25,0,0,0,29.42-15.72l-12.1,19.08a76.2,76.2,0,0,0,19.76-11.85,35.75,35.75,0,0,0-9.75,15.33,27,27,0,0,0,15.54-12.7c.49,1.93-.72,3.88-2.08,5.34s-3,2.82-3.56,4.72.54,4.49,2.53,4.45c1.41,0,2.44-1.28,3.26-2.42l6.65-9.17a10.77,10.77,0,0,0-3.65,10.49A37.27,37.27,0,0,0,823.26,3314c-1.64,1.67-3.35,3.49-3.71,5.79s1.45,5,3.76,4.69A5.14,5.14,0,0,0,825.91,3323Z" transform="translate(-447 711)"/>
            <g>
              <g>
                <path class="cls-9" d="M819.16,3330.52l8.1,15.77a2.21,2.21,0,0,1,1.61.63c.69.68-.22,1.9-.91,1.21a1.46,1.46,0,0,1-.13-.09c.37,1.09.74,2.18,1.1,3.27.31.92-1.09,1.52-1.4.59l-1.17-3.48a2,2,0,0,0-.25,1.24,6,6,0,0,0,1.69,2.78c.63.74-.57,1.66-1.21.92-1.25-1.45-2.58-3.31-1.81-5.32a2.74,2.74,0,0,1,1-1.27l-8-15.66C817.32,3330.24,818.72,3329.66,819.16,3330.52Z" transform="translate(-447 711)"/>
                <path class="cls-10" d="M815.75,3328.83a33.79,33.79,0,0,0-2.07-4.24c2.47,1.81,14.12,11.89,9.52,15.72a2.23,2.23,0,0,1-2.83-.29,6.55,6.55,0,0,1-1.53-2.68C817.74,3334.41,816.89,3331.59,815.75,3328.83Z" transform="translate(-447 711)"/>
              </g>
              <g>
                <path class="cls-12" d="M807,3286q-.68,1-1.26,2.16c-.13.26-.25.52-.37.78,0,0,0,0,0,.05a26,26,0,0,0-2,11s0,0,0,0a49.23,49.23,0,0,0,3.95,17.59c.18.44.37.88.58,1.33s.4.9.62,1.33a39.75,39.75,0,0,0,10.6,12.82c1.5,1.26,3.08,2.5,4.7,3.75,1.36,1,3.37,3.93,5.51,5.93,1.45,1.39,2.94,2.39,4.34,2.12,10.45-1.93,6.35-25.13,5.72-30.46-1.19-9.93-3.33-20.09-8.41-28.24a35.39,35.39,0,0,0-3.37-4.59,10.09,10.09,0,0,0-10.84-3.18A18,18,0,0,0,807,3286Z" transform="translate(-447 711)"/>
                <path class="cls-27" d="M832.59,3349.55c-2-5.23-5.1-23.13,5.26-17.14,5.18,3,8.45,8.28,13.09,11.81,5.51,4.21,11.4,8.12,15.72,13.55.67.83,1.31,2,.75,2.88-.74,1.21-2.59.59-3.8-.16l-11.86-7.34a17.19,17.19,0,0,1,8,11.69c.18,1.11.08,2.55-1,3-.89.35-1.82-.3-2.55-.91l-12.94-10.81a20.88,20.88,0,0,1,3.8,8.25c.35,1.58.1,3.78-1.5,4-1.17.2-2.13-.88-2.83-1.84C838.87,3361.18,834.94,3355.74,832.59,3349.55Z" transform="translate(-447 711)"/>
                <path class="cls-12" d="M806.11,3282a21.56,21.56,0,0,0,.89,4c1.87,6.16,6.42,13.95,12.18,14.95a7.93,7.93,0,0,0,5.89-1.41c4.45-2.92,6.07-8,5.9-13.34a25.84,25.84,0,0,0-5.62-15.24c-3.59-4.12-10.16-6.06-14.68-3l-.65.47C806.3,3271.55,805.57,3277.17,806.11,3282Z" transform="translate(-447 711)"/>
                <path class="cls-15" d="M806.11,3282a21.56,21.56,0,0,0,.89,4q-.68,1-1.26,2.16c-.13.26-.25.52-.37.78,0,0,0,0,0,.05-3.21,7.17-2.26,17.44.08,24.8,2.44,7.66,7.69,14.26,13.68,19.31,1.5,1.26,3.08,2.5,4.7,3.75,2,1.53,3,3.83,4.82,5.44-.33-.3-.28-2.74-.37-3.27a10.32,10.32,0,0,0-1-3.11,28.08,28.08,0,0,1-2.45-6.37c-1.2-4.77-1.48-9.7-1.95-14.58-.4-4.13-1.07-9-3-12.71-.23-.45-.46-.87-.67-1.3-1.73-3.16-3.14-5.54-2.81-9.72.26-3.77,1.27-7.54.71-11.28a13.25,13.25,0,0,0-.32-1.52,20.82,20.82,0,0,0-6.38-9.67c-.11-.11-.23-.2-.36-.31C806.3,3271.55,805.57,3277.17,806.11,3282Z" transform="translate(-447 711)"/>
                <path class="cls-10" d="M810.2,3268.64c-2,3.14-2.32,7.4-1.9,11.21a21.56,21.56,0,0,0,.89,4,22.92,22.92,0,0,0-1.25,2.16c-.13.26-.26.51-.38.78,0,0,0,0,0,.05-3.21,7.17-2.25,17.44.08,24.8a39.39,39.39,0,0,0,9.54,15.43c4.15,4.19,8.5,8.08,10.24,13.93-1.91-3.36-5.41-5.44-8.29-7.86-6-5-11.24-11.65-13.68-19.31-2.34-7.36-3.29-17.63-.08-24.8,0,0,0,0,0-.05.12-.26.24-.52.37-.78q.59-1.12,1.26-2.16a21.56,21.56,0,0,1-.89-4c-.54-4.87.19-10.49,3.91-13.55Z" transform="translate(-447 711)"/>
                <path class="cls-9" d="M807,3263a10,10,0,0,0-.35,3.41,6.25,6.25,0,0,0,1.57,4c1.49,1.52,3.57.91,4.33-1.12C813.79,3266.06,809.22,3264.51,807,3263Z" transform="translate(-447 711)"/>
                <path class="cls-16" d="M816.74,3273.15l.18.18a1.52,1.52,0,0,1-2.15,2.15l-.18-.18A1.52,1.52,0,0,1,816.74,3273.15Z" transform="translate(-447 711)"/>
                <path class="cls-11" d="M841.2,3348.5a23.36,23.36,0,0,0,1,2.81c.17.37.77,2.19,1.23,2.22.72,0,.16-2.37.12-2.73-.13-1-.25-2-.37-3s1.4-1,1.52,0a2.51,2.51,0,0,0,0,.27,34.51,34.51,0,0,0,3.08,5.51,31.61,31.61,0,0,0,2.52,3.15c.47.52,1,1,1.47,1.51,1.19.3,1.45,0,.77-.91,0-1.68-2-4.55-2.74-6-1-2-2.14-3.93-3.33-5.83-.52-.83.8-1.58,1.32-.75a75.84,75.84,0,0,1,5.32,10c.59,1.36,2.46,4.14.67,5.33s-3.58-1.22-4.56-2.29a33.44,33.44,0,0,1-4-5.43c0,.26.05.52.05.78,0,1-.45,2.06-1.59,2.08s-1.74-.93-2.18-1.74a22.34,22.34,0,0,1-1.82-4.61A.76.76,0,0,1,841.2,3348.5Z" transform="translate(-447 711)"/>
              </g>
              <g>
                <path class="cls-9" d="M813.67,3326.36l8.1,15.77a2.23,2.23,0,0,1,1.61.63c.69.68-.22,1.9-.92,1.21,0,0-.08,0-.12-.09.36,1.09.73,2.18,1.1,3.27.31.92-1.09,1.51-1.4.59-.39-1.16-.78-2.32-1.18-3.48a2.09,2.09,0,0,0-.24,1.24,6.07,6.07,0,0,0,1.68,2.78c.64.74-.57,1.66-1.2.92-1.26-1.45-2.58-3.31-1.81-5.32a2.74,2.74,0,0,1,1-1.27q-4-7.83-8.05-15.66C811.82,3326.08,813.23,3325.5,813.67,3326.36Z" transform="translate(-447 711)"/>
                <path class="cls-10" d="M810.26,3324.67a33.88,33.88,0,0,0-2.08-4.24c2.47,1.81,14.13,11.88,9.53,15.72a2.24,2.24,0,0,1-2.84-.29,6.43,6.43,0,0,1-1.52-2.68C812.25,3330.25,811.4,3327.43,810.26,3324.67Z" transform="translate(-447 711)"/>
              </g>
            </g>
            <path class="cls-28" d="M832.52,3326.06c2.48-6.45,4.25-21.09-1.51-26.62-4.79-4.6-14.42,1.64-20.15.54-6.64-1.29-13.15-4.28-19.88-3.53-6.94.78-12.88,5.48-17.26,10.93s-7.56,11.75-11.64,17.42a67.49,67.49,0,0,1-19.72,18.25c6.31,3.19,14.1,2.14,20.44-1s11.51-8.17,16.58-13.1l-4.2,18.57a45.28,45.28,0,0,0,19.49-27.07q-1.23,11.22-2.47,22.46a76,76,0,0,0,12.53-19.34,35.71,35.71,0,0,0-2,18.05,27,27,0,0,0,8.35-18.24c1.3,1.51,1.06,3.79.49,5.7s-1.42,3.84-1.11,5.81,2.46,3.79,4.23,2.88c1.24-.65,1.62-2.22,1.86-3.61l1.92-11.16a10.79,10.79,0,0,0,1.35,11,37.13,37.13,0,0,0,6.39-14.8c-.74,2.21-1.48,4.6-.78,6.83s3.52,3.89,5.44,2.55A5.1,5.1,0,0,0,832.52,3326.06Z" transform="translate(-447 711)"/>
          </g>
        </g>
        <g id="圖層_40_拷貝" data-name="圖層 40 拷貝">
          <g>
            <path class="cls-11" d="M827.91,2737c5.06-4.7,13.1-17.06,10.37-24.57-2.27-6.24-13.67-4.88-18.32-8.39-5.4-4.08-9.93-9.63-16.3-11.92-6.58-2.37-14-.77-20.31,2.2s-12,7.21-18.12,10.51a67.36,67.36,0,0,1-25.75,7.69c4.26,5.65,11.72,8.14,18.79,8.1s13.94-2.26,20.67-4.45L767,2731a45.25,45.25,0,0,0,29.42-15.72l-12.1,19.08a76.2,76.2,0,0,0,19.76-11.85,35.75,35.75,0,0,0-9.75,15.33,27,27,0,0,0,15.54-12.7c.49,1.93-.72,3.88-2.08,5.34s-3,2.82-3.56,4.72.54,4.49,2.53,4.45c1.41,0,2.44-1.28,3.26-2.42l6.65-9.17a10.77,10.77,0,0,0-3.65,10.49A37.27,37.27,0,0,0,825.26,2728c-1.64,1.67-3.35,3.49-3.71,5.79s1.45,5,3.76,4.69A5.14,5.14,0,0,0,827.91,2737Z" transform="translate(-447 711)"/>
            <g>
              <g>
                <path class="cls-9" d="M821.16,2744.52l8.1,15.77a2.21,2.21,0,0,1,1.61.63c.69.68-.22,1.9-.91,1.21a1.46,1.46,0,0,1-.13-.09c.37,1.09.74,2.18,1.1,3.27.31.92-1.09,1.52-1.4.59l-1.17-3.48a2,2,0,0,0-.25,1.24,6,6,0,0,0,1.69,2.78c.63.74-.57,1.66-1.21.92-1.25-1.45-2.58-3.31-1.81-5.32a2.74,2.74,0,0,1,1-1.27l-8-15.66C819.32,2744.24,820.72,2743.66,821.16,2744.52Z" transform="translate(-447 711)"/>
                <path class="cls-10" d="M817.75,2742.83a33.79,33.79,0,0,0-2.07-4.24c2.47,1.81,14.12,11.89,9.52,15.72a2.23,2.23,0,0,1-2.83-.29,6.55,6.55,0,0,1-1.53-2.68C819.74,2748.41,818.89,2745.59,817.75,2742.83Z" transform="translate(-447 711)"/>
              </g>
              <g>
                <path class="cls-12" d="M809,2700q-.68,1-1.26,2.16c-.13.26-.25.52-.37.78,0,0,0,0,0,.05a26,26,0,0,0-2,11s0,0,0,0a49.23,49.23,0,0,0,3.95,17.59c.18.44.37.88.58,1.33s.4.9.62,1.33a39.75,39.75,0,0,0,10.6,12.82c1.5,1.26,3.08,2.5,4.7,3.75,1.36,1,3.37,3.93,5.51,5.93,1.45,1.39,2.94,2.39,4.34,2.12,10.45-1.93,6.35-25.13,5.72-30.46-1.19-9.93-3.33-20.09-8.41-28.24a35.39,35.39,0,0,0-3.37-4.59,10.09,10.09,0,0,0-10.84-3.18A18,18,0,0,0,809,2700Z" transform="translate(-447 711)"/>
                <path class="cls-29" d="M834.59,2763.55c-2-5.23-5.1-23.13,5.26-17.14,5.18,3,8.45,8.28,13.09,11.81,5.51,4.21,11.4,8.12,15.72,13.55.67.83,1.31,2,.75,2.88-.74,1.21-2.59.59-3.8-.16l-11.86-7.34a17.19,17.19,0,0,1,8,11.69c.18,1.11.08,2.55-1,3-.89.35-1.82-.3-2.55-.91l-12.94-10.81a20.88,20.88,0,0,1,3.8,8.25c.35,1.58.1,3.78-1.5,4-1.17.2-2.13-.88-2.83-1.84C840.87,2775.18,836.94,2769.74,834.59,2763.55Z" transform="translate(-447 711)"/>
                <path class="cls-12" d="M808.11,2696a21.56,21.56,0,0,0,.89,4c1.87,6.16,6.42,13.95,12.18,14.95a7.93,7.93,0,0,0,5.89-1.41c4.45-2.92,6.07-8,5.9-13.34a25.84,25.84,0,0,0-5.62-15.24c-3.59-4.12-10.16-6.06-14.68-3l-.65.47C808.3,2685.55,807.57,2691.17,808.11,2696Z" transform="translate(-447 711)"/>
                <path class="cls-15" d="M808.11,2696a21.56,21.56,0,0,0,.89,4q-.68,1-1.26,2.16c-.13.26-.25.52-.37.78,0,0,0,0,0,.05-3.21,7.17-2.26,17.44.08,24.8,2.44,7.66,7.69,14.26,13.68,19.31,1.5,1.26,3.08,2.5,4.7,3.75,2,1.53,3,3.83,4.82,5.44-.33-.3-.28-2.74-.37-3.27a10.32,10.32,0,0,0-1-3.11,28.08,28.08,0,0,1-2.45-6.37c-1.2-4.77-1.48-9.7-1.95-14.58-.4-4.13-1.07-9-3-12.71-.23-.45-.46-.87-.67-1.3-1.73-3.16-3.14-5.54-2.81-9.72.26-3.77,1.27-7.54.71-11.28a13.25,13.25,0,0,0-.32-1.52,20.82,20.82,0,0,0-6.38-9.67c-.11-.11-.23-.2-.36-.31C808.3,2685.55,807.57,2691.17,808.11,2696Z" transform="translate(-447 711)"/>
                <path class="cls-10" d="M812.2,2682.64c-2,3.14-2.32,7.4-1.9,11.21a21.56,21.56,0,0,0,.89,4,22.92,22.92,0,0,0-1.25,2.16c-.13.26-.26.51-.38.78,0,0,0,0,0,.05-3.21,7.17-2.25,17.44.08,24.8a39.39,39.39,0,0,0,9.54,15.43c4.15,4.19,8.5,8.08,10.24,13.93-1.91-3.36-5.41-5.44-8.29-7.86-6-5-11.24-11.65-13.68-19.31-2.34-7.36-3.29-17.63-.08-24.8,0,0,0,0,0-.05.12-.26.24-.52.37-.78q.59-1.12,1.26-2.16a21.56,21.56,0,0,1-.89-4c-.54-4.87.19-10.49,3.91-13.55Z" transform="translate(-447 711)"/>
                <path class="cls-9" d="M809,2677a10,10,0,0,0-.35,3.41,6.25,6.25,0,0,0,1.57,4c1.49,1.52,3.57.91,4.33-1.12C815.79,2680.06,811.22,2678.51,809,2677Z" transform="translate(-447 711)"/>
                <path class="cls-16" d="M818.74,2687.15l.18.18a1.52,1.52,0,0,1-2.15,2.15l-.18-.18A1.52,1.52,0,0,1,818.74,2687.15Z" transform="translate(-447 711)"/>
                <path class="cls-11" d="M843.2,2762.5a23.36,23.36,0,0,0,1,2.81c.17.37.77,2.19,1.23,2.22.72,0,.16-2.37.12-2.73-.13-1-.25-2-.37-3s1.4-1,1.52,0a2.51,2.51,0,0,0,0,.27,34.51,34.51,0,0,0,3.08,5.51,31.61,31.61,0,0,0,2.52,3.15c.47.52,1,1,1.47,1.51,1.19.3,1.45,0,.77-.91,0-1.68-2-4.55-2.74-6-1-2-2.14-3.93-3.33-5.83-.52-.83.8-1.58,1.32-.75a75.84,75.84,0,0,1,5.32,10c.59,1.36,2.46,4.14.67,5.33s-3.58-1.22-4.56-2.29a33.44,33.44,0,0,1-4-5.43c0,.26.05.52.05.78,0,1-.45,2.06-1.59,2.08s-1.74-.93-2.18-1.74a22.34,22.34,0,0,1-1.82-4.61A.76.76,0,0,1,843.2,2762.5Z" transform="translate(-447 711)"/>
              </g>
              <g>
                <path class="cls-9" d="M815.67,2740.36l8.1,15.77a2.23,2.23,0,0,1,1.61.63c.69.68-.22,1.9-.92,1.21,0,0-.08,0-.12-.09.36,1.09.73,2.18,1.1,3.27.31.92-1.09,1.51-1.4.59-.39-1.16-.78-2.32-1.18-3.48a2.09,2.09,0,0,0-.24,1.24,6.07,6.07,0,0,0,1.68,2.78c.64.74-.57,1.66-1.2.92-1.26-1.45-2.58-3.31-1.81-5.32a2.74,2.74,0,0,1,1-1.27q-4-7.83-8.05-15.66C813.82,2740.08,815.23,2739.5,815.67,2740.36Z" transform="translate(-447 711)"/>
                <path class="cls-10" d="M812.26,2738.67a33.88,33.88,0,0,0-2.08-4.24c2.47,1.81,14.13,11.88,9.53,15.72a2.24,2.24,0,0,1-2.84-.29,6.43,6.43,0,0,1-1.52-2.68C814.25,2744.25,813.4,2741.43,812.26,2738.67Z" transform="translate(-447 711)"/>
              </g>
            </g>
            <path class="cls-30" d="M834.52,2740.06c2.48-6.45,4.25-21.09-1.51-26.62-4.79-4.6-14.42,1.64-20.15.54-6.64-1.29-13.15-4.28-19.88-3.53-6.94.78-12.88,5.48-17.26,10.93s-7.56,11.75-11.64,17.42a67.49,67.49,0,0,1-19.72,18.25c6.31,3.19,14.1,2.14,20.44-1s11.51-8.17,16.58-13.1l-4.2,18.57a45.28,45.28,0,0,0,19.49-27.07q-1.23,11.22-2.47,22.46a76,76,0,0,0,12.53-19.34,35.71,35.71,0,0,0-2,18.05,27,27,0,0,0,8.35-18.24c1.3,1.51,1.06,3.79.49,5.7s-1.42,3.84-1.11,5.81,2.46,3.79,4.23,2.88c1.24-.65,1.62-2.22,1.86-3.61l1.92-11.16a10.79,10.79,0,0,0,1.35,11,37.13,37.13,0,0,0,6.39-14.8c-.74,2.21-1.48,4.6-.78,6.83s3.52,3.89,5.44,2.55A5.1,5.1,0,0,0,834.52,2740.06Z" transform="translate(-447 711)"/>
          </g>
        </g>
        <g id="圖層_40_拷貝_2" data-name="圖層 40 拷貝 2">
          <g>
            <path class="cls-11" d="M574.91,2007c5.06-4.7,13.1-17.06,10.37-24.57-2.27-6.24-13.67-4.88-18.32-8.39-5.4-4.08-9.93-9.63-16.3-11.92-6.58-2.37-14-.77-20.31,2.2s-12,7.21-18.12,10.51a67.36,67.36,0,0,1-25.75,7.69c4.26,5.65,11.72,8.14,18.79,8.1s13.94-2.26,20.67-4.45L514,2001a45.25,45.25,0,0,0,29.42-15.72l-12.1,19.08a76.2,76.2,0,0,0,19.76-11.85,35.75,35.75,0,0,0-9.75,15.33,27,27,0,0,0,15.54-12.7c.49,1.93-.72,3.88-2.08,5.34s-3,2.82-3.56,4.72.54,4.49,2.53,4.45c1.41,0,2.44-1.28,3.26-2.42l6.65-9.17a10.77,10.77,0,0,0-3.65,10.49A37.27,37.27,0,0,0,572.26,1998c-1.64,1.67-3.35,3.49-3.71,5.79s1.45,5,3.76,4.69A5.14,5.14,0,0,0,574.91,2007Z" transform="translate(-447 711)"/>
            <g>
              <g>
                <path class="cls-9" d="M568.16,2014.52l8.1,15.77a2.21,2.21,0,0,1,1.61.63c.69.68-.22,1.9-.91,1.21a1.46,1.46,0,0,1-.13-.09c.37,1.09.74,2.18,1.1,3.27.31.92-1.09,1.52-1.4.59l-1.17-3.48a2,2,0,0,0-.25,1.24,6,6,0,0,0,1.69,2.78c.63.74-.57,1.66-1.21.92-1.25-1.45-2.58-3.31-1.81-5.32a2.74,2.74,0,0,1,1-1.27l-8-15.66C566.32,2014.24,567.72,2013.66,568.16,2014.52Z" transform="translate(-447 711)"/>
                <path class="cls-10" d="M564.75,2012.83a33.79,33.79,0,0,0-2.07-4.24c2.47,1.81,14.12,11.89,9.52,15.72a2.23,2.23,0,0,1-2.83-.29,6.55,6.55,0,0,1-1.53-2.68C566.74,2018.41,565.89,2015.59,564.75,2012.83Z" transform="translate(-447 711)"/>
              </g>
              <g>
                <path class="cls-12" d="M556,1970q-.68,1-1.26,2.16c-.13.26-.25.52-.37.78,0,0,0,0,0,0a26,26,0,0,0-2,11s0,0,0,0a49.23,49.23,0,0,0,3.95,17.59c.18.44.37.88.58,1.33s.4.9.62,1.33a39.75,39.75,0,0,0,10.6,12.82c1.5,1.26,3.08,2.5,4.7,3.75,1.36,1,3.37,3.93,5.51,5.93,1.45,1.39,2.94,2.39,4.34,2.12,10.45-1.93,6.35-25.13,5.72-30.46-1.19-9.93-3.33-20.09-8.41-28.24a35.39,35.39,0,0,0-3.37-4.59,10.09,10.09,0,0,0-10.84-3.18A18,18,0,0,0,556,1970Z" transform="translate(-447 711)"/>
                <path class="cls-31" d="M581.59,2033.55c-2-5.23-5.1-23.13,5.26-17.14,5.18,3,8.45,8.28,13.09,11.81,5.51,4.21,11.4,8.12,15.72,13.55.67.83,1.31,2,.75,2.88-.74,1.21-2.59.59-3.8-.16l-11.86-7.34a17.19,17.19,0,0,1,8,11.69c.18,1.11.08,2.55-1,3-.89.35-1.82-.3-2.55-.91l-12.94-10.81a20.88,20.88,0,0,1,3.8,8.25c.35,1.58.1,3.78-1.5,4-1.17.2-2.13-.88-2.83-1.84C587.87,2045.18,583.94,2039.74,581.59,2033.55Z" transform="translate(-447 711)"/>
                <path class="cls-12" d="M555.11,1966a21.56,21.56,0,0,0,.89,4c1.87,6.16,6.42,14,12.18,15a7.93,7.93,0,0,0,5.89-1.41c4.45-2.92,6.07-8,5.9-13.34a25.84,25.84,0,0,0-5.62-15.24c-3.59-4.12-10.16-6.06-14.68-3l-.65.47C555.3,1955.55,554.57,1961.17,555.11,1966Z" transform="translate(-447 711)"/>
                <path class="cls-15" d="M555.11,1966a21.56,21.56,0,0,0,.89,4q-.68,1-1.26,2.16c-.13.26-.25.52-.37.78,0,0,0,0,0,0-3.21,7.17-2.26,17.44.08,24.8,2.44,7.66,7.69,14.26,13.68,19.31,1.5,1.26,3.08,2.5,4.7,3.75,2,1.53,3,3.83,4.82,5.44-.33-.3-.28-2.74-.37-3.27a10.32,10.32,0,0,0-1-3.11,28.08,28.08,0,0,1-2.45-6.37c-1.2-4.77-1.48-9.7-1.95-14.58-.4-4.13-1.07-9-3-12.71-.23-.45-.46-.87-.67-1.3-1.73-3.16-3.14-5.54-2.81-9.72.26-3.77,1.27-7.54.71-11.28a13.25,13.25,0,0,0-.32-1.52,20.82,20.82,0,0,0-6.38-9.67c-.11-.11-.23-.2-.36-.31C555.3,1955.55,554.57,1961.17,555.11,1966Z" transform="translate(-447 711)"/>
                <path class="cls-10" d="M559.2,1952.64c-2,3.14-2.32,7.4-1.9,11.21a21.56,21.56,0,0,0,.89,4,22.92,22.92,0,0,0-1.25,2.16c-.13.26-.26.51-.38.78,0,0,0,0,0,0-3.21,7.17-2.25,17.44.08,24.8a39.39,39.39,0,0,0,9.54,15.43c4.15,4.19,8.5,8.08,10.24,13.93-1.91-3.36-5.41-5.44-8.29-7.86-6-5.05-11.24-11.65-13.68-19.31-2.34-7.36-3.29-17.63-.08-24.8,0,0,0,0,0,0,.12-.26.24-.52.37-.78q.59-1.12,1.26-2.16a21.56,21.56,0,0,1-.89-4c-.54-4.87.19-10.49,3.91-13.55Z" transform="translate(-447 711)"/>
                <path class="cls-9" d="M556,1947a10,10,0,0,0-.35,3.41,6.25,6.25,0,0,0,1.57,4c1.49,1.52,3.57.91,4.33-1.12C562.79,1950.06,558.22,1948.51,556,1947Z" transform="translate(-447 711)"/>
                <path class="cls-16" d="M565.74,1957.15l.18.18a1.52,1.52,0,0,1-2.15,2.15l-.18-.18A1.52,1.52,0,0,1,565.74,1957.15Z" transform="translate(-447 711)"/>
                <path class="cls-11" d="M590.2,2032.5a23.36,23.36,0,0,0,1,2.81c.17.37.77,2.19,1.23,2.22.72,0,.16-2.37.12-2.73-.13-1-.25-2-.37-3s1.4-1,1.52,0a2.51,2.51,0,0,0,0,.27,34.51,34.51,0,0,0,3.08,5.51,31.61,31.61,0,0,0,2.52,3.15c.47.52,1,1,1.47,1.51,1.19.3,1.45,0,.77-.91,0-1.68-2-4.55-2.74-6-1-2-2.14-3.93-3.33-5.83-.52-.83.8-1.58,1.32-.75a75.84,75.84,0,0,1,5.32,10c.59,1.36,2.46,4.14.67,5.33s-3.58-1.22-4.56-2.29a33.44,33.44,0,0,1-4-5.43c0,.26.05.52.05.78,0,1-.45,2.06-1.59,2.08s-1.74-.93-2.18-1.74a22.34,22.34,0,0,1-1.82-4.61A.76.76,0,0,1,590.2,2032.5Z" transform="translate(-447 711)"/>
              </g>
              <g>
                <path class="cls-9" d="M562.67,2010.36l8.1,15.77a2.23,2.23,0,0,1,1.61.63c.69.68-.22,1.9-.92,1.21l-.12-.09c.36,1.09.73,2.18,1.1,3.27.31.92-1.09,1.51-1.4.59-.39-1.16-.78-2.32-1.18-3.48a2.09,2.09,0,0,0-.24,1.24,6.07,6.07,0,0,0,1.68,2.78c.64.74-.57,1.66-1.2.92-1.26-1.45-2.58-3.31-1.81-5.32a2.74,2.74,0,0,1,1-1.27q-4-7.83-8.05-15.66C560.82,2010.08,562.23,2009.5,562.67,2010.36Z" transform="translate(-447 711)"/>
                <path class="cls-10" d="M559.26,2008.67a33.88,33.88,0,0,0-2.08-4.24c2.47,1.81,14.13,11.88,9.53,15.72a2.24,2.24,0,0,1-2.84-.29,6.43,6.43,0,0,1-1.52-2.68C561.25,2014.25,560.4,2011.43,559.26,2008.67Z" transform="translate(-447 711)"/>
              </g>
            </g>
            <path class="cls-32" d="M581.52,2010.06c2.48-6.45,4.25-21.09-1.51-26.62-4.79-4.6-14.42,1.64-20.15.54-6.64-1.29-13.15-4.28-19.88-3.53-6.94.78-12.88,5.48-17.26,10.93s-7.56,11.75-11.64,17.42a67.49,67.49,0,0,1-19.72,18.25c6.31,3.19,14.1,2.14,20.44-1s11.51-8.17,16.58-13.1l-4.2,18.57a45.28,45.28,0,0,0,19.49-27.07q-1.23,11.22-2.47,22.46a76,76,0,0,0,12.53-19.34,35.71,35.71,0,0,0-2,18,27,27,0,0,0,8.35-18.24c1.3,1.51,1.06,3.79.49,5.7s-1.42,3.84-1.11,5.81,2.46,3.79,4.23,2.88c1.24-.65,1.62-2.22,1.86-3.61l1.92-11.16a10.79,10.79,0,0,0,1.35,11,37.13,37.13,0,0,0,6.39-14.8c-.74,2.21-1.48,4.6-.78,6.83s3.52,3.89,5.44,2.55A5.1,5.1,0,0,0,581.52,2010.06Z" transform="translate(-447 711)"/>
          </g>
        </g>
      </g>
      <g id="圖層_2_拷貝_6" data-name="圖層 2 拷貝 6">
        <g id="圖層_2_拷貝_6-2" data-name="圖層 2 拷貝 6">
          <g id="圖層_2_拷貝_6-3" data-name="圖層 2 拷貝 6">
            <g id="圖層_2_拷貝_6-4" data-name="圖層 2 拷貝 6">
              <g id="圖層_2_拷貝_6-5" data-name="圖層 2 拷貝 6">
                <g id="圖層_7_拷貝_2" data-name="圖層 7 拷貝 2">
                  <path class="cls-33" d="M591.28,611.39a19.69,19.69,0,0,0-.22-2.79,51.62,51.62,0,0,0,13.73-87.32,35.31,35.31,0,0,0-33.22-47.52,34.5,34.5,0,0,0-4.57.33V630.55a19.66,19.66,0,0,0,24.28-19.16Z" transform="translate(-447 711)"/>
                  <path class="cls-34" d="M963.28,1109.58a20,20,0,0,0-.22-2.8,51.62,51.62,0,0,0,13.73-87.32,35,35,0,0,0,2.18-12.12,35.4,35.4,0,0,0-35.4-35.4,36.27,36.27,0,0,0-4.57.33v156.46a19.62,19.62,0,0,0,24.28-19.15Z" transform="translate(-447 711)"/>
                  <path class="cls-35" d="M727.28,917.79a19.69,19.69,0,0,0-.22-2.79,51.62,51.62,0,0,0,13.73-87.32,35.31,35.31,0,0,0-33.22-47.53,36.27,36.27,0,0,0-4.57.33V937a20.2,20.2,0,0,0,4.57.55A19.72,19.72,0,0,0,727.28,917.79Z" transform="translate(-447 711)"/>
                  <path class="cls-36" d="M963.28,558.12a19.81,19.81,0,0,0-.22-2.79A51.62,51.62,0,0,0,976.79,468a35.31,35.31,0,0,0-33.22-47.52,34.5,34.5,0,0,0-4.57.33V577.28a19.66,19.66,0,0,0,24.28-19.16Z" transform="translate(-447 711)"/>
                  <g id="圖層_12_拷貝_4" data-name="圖層 12 拷貝 4">
                    <g>
                      <g>
                        <path class="cls-9" d="M526.73,940.33l-4,18.21a2.29,2.29,0,0,1,.88,1.59c.1,1-1.45,1.39-1.56.37,0-.07,0-.1,0-.16l-1.3,3.39c-.37.95-1.9.49-1.53-.47.47-1.2.93-2.4,1.39-3.61a2.19,2.19,0,0,0-1,.85,6.38,6.38,0,0,0-.5,3.38c0,1-1.57,1-1.59-.06,0-2,.13-4.42,2.11-5.53a2.8,2.8,0,0,1,1.68-.33l4-18.1C525.42,938.86,527,939.33,526.73,940.33Z" transform="translate(-447 711)"/>
                        <path class="cls-10" d="M525.1,936.67a35.46,35.46,0,0,0,1.16-4.83c.79,3.12,3.47,19.1-2.83,19.13a2.37,2.37,0,0,1-2.1-2.14,6.81,6.81,0,0,1,.56-3.19C523,942.53,524.17,939.67,525.1,936.67Z" transform="translate(-447 711)"/>
                      </g>
                      <g>
                        <path class="cls-11" d="M551.81,940.79c-1.39-6.89-2.13-22.36,1.67-27.92,3.16-4.63,9.1,2.36,12.77,1.45,4.25-1.06,8.45-3.91,12.7-2.83s8,6.32,10.66,12.24,4.48,12.68,6.92,18.83a66.14,66.14,0,0,0,12,20.05c-4.09,3.07-9,1.63-12.94-2s-7.09-9.1-10.17-14.5q1.08,9.84,2.17,19.7c-5.94-6.84-10.2-17.56-11.64-29.31l1,23.71a101.49,101.49,0,0,1-7.43-20.87,61.39,61.39,0,0,1,.79,19.06c-3-5.17-4.8-12.33-4.81-19.54-.86,1.53-.78,3.94-.46,6a22.85,22.85,0,0,1,.55,6.16c-.25,2.05-1.66,3.87-2.76,2.83-.77-.73-1-2.4-1.08-3.87l-.93-11.82a17.52,17.52,0,0,1-1.15,11.53A56.57,56.57,0,0,1,556,933.86a19.1,19.1,0,0,1,.31,7.21c-.5,2.31-2.33,3.94-3.51,2.45A6.78,6.78,0,0,1,551.81,940.79Z" transform="translate(-447 711)"/>
                        <path class="cls-12" d="M546.72,896.13a23.67,23.67,0,0,0-2.47.9l-.83.38,0,0a27.41,27.41,0,0,0-9,7.58s0,0,0,0a51.69,51.69,0,0,0-8.61,16.9c-.15.48-.29,1-.42,1.47s-.28,1-.39,1.5a41.74,41.74,0,0,0,0,17.49c.37,2,.82,4.09,1.29,6.2.4,1.75.09,5.44.48,8.5.24,2.09.78,3.9,2.1,4.63,9.76,5.44,22-16.1,25.07-20.85,5.7-8.84,10.79-18.5,12.14-28.52a37.43,37.43,0,0,0,.35-6,10.61,10.61,0,0,0-6.65-9.85A18.85,18.85,0,0,0,546.72,896.13Z" transform="translate(-447 711)"/>
                        <path class="cls-37" d="M524.83,964.75c1.9-5.57,11.4-22.16,15.77-10.35,2.18,5.9,1.3,12.37,2.68,18.35,1.64,7.11,3.79,14.23,3.65,21.53,0,1.11-.27,2.47-1.33,2.83-1.41.48-2.49-1.26-3-2.67L538,980.53a18,18,0,0,1-1.37,14.83c-.59,1-1.64,2.13-2.77,1.76-.95-.32-1.28-1.47-1.46-2.46q-1.61-8.71-3.23-17.44a21.92,21.92,0,0,1-2.45,9.24c-.78,1.51-2.46,3.13-3.93,2.27-1.08-.63-1.13-2.14-1-3.39C522.13,978.39,522.58,971.34,524.83,964.75Z" transform="translate(-447 711)"/>
                        <path class="cls-38" d="M541.74,935.1c.28-7.25,3.13-22,7.92-24.8,4-2.3,7.88,7.89,11.48,9.34,4.18,1.68,8.72,1.68,12.41,5.34s6,10.88,7.07,18,1.26,14.55,2.12,21.76a100.48,100.48,0,0,0,6.56,26.1c-4.49.29-8.71-4.13-11.53-9.92s-4.49-12.86-6.11-19.8l-2.49,19.61c-3.94-10-5.44-22.66-4.09-34.43q-2.25,11.28-4.51,22.56a128.73,128.73,0,0,1-2.12-24A56.06,56.06,0,0,1,554.83,963a46.13,46.13,0,0,1,0-21.1c-1.15.88-1.61,3.16-1.79,5.24s-.19,4.3-.89,6-2.42,2.55-3.2.9a7.82,7.82,0,0,1-.12-4.26q.92-5.76,1.84-11.52c0,4.1-1.48,8.11-3.7,9.95a64.62,64.62,0,0,1,.23-17c-.16,2.44-.37,5.05-1.36,6.87s-3.06,2.18-3.81.07A8.79,8.79,0,0,1,541.74,935.1Z" transform="translate(-447 711)"/>
                        <path class="cls-12" d="M548.68,892.29a22.06,22.06,0,0,0-2,3.84c-2.62,6.24-4.16,15.6-.17,20.28a8.39,8.39,0,0,0,5.72,2.81c5.57.62,10.32-2.44,13.74-6.85,3.67-4.76,5.79-11.1,5.67-16.12-.14-5.74-4.17-11.73-9.89-12.27l-.84-.05C555.88,883.91,551.51,888,548.68,892.29Z" transform="translate(-447 711)"/>
                        <path class="cls-15" d="M548.68,892.29a22.06,22.06,0,0,0-2,3.84,23.67,23.67,0,0,0-2.47.9l-.83.38,0,0c-7.42,3.67-13.54,12.63-16.58,20.16-3.17,7.84-3.33,16.71-1.87,24.82.37,2,.82,4.09,1.29,6.2.57,2.55-.13,5.13.25,7.63-.07-.45,1.62-2.4,1.9-2.89a11.26,11.26,0,0,0,1.27-3.2,29.66,29.66,0,0,1,2.28-6.81c2.23-4.66,5.32-8.85,8.2-13.12,2.45-3.61,5.17-8,6.11-12.31.11-.52.21-1,.32-1.5.73-3.73,1.18-6.59,4.25-9.76,2.74-2.88,6.1-5.26,8.15-8.66a13.33,13.33,0,0,0,.76-1.45A22.07,22.07,0,0,0,561,884.42c0-.16,0-.31-.08-.49C555.88,883.91,551.51,888,548.68,892.29Z" transform="translate(-447 711)"/>
                        <path class="cls-10" d="M561,884.17c-3.69,1.23-6.84,4.44-9.05,7.81a22.76,22.76,0,0,0-2,3.84,24.47,24.47,0,0,0-2.46.91c-.28.12-.56.24-.83.38l0,0c-7.41,3.66-13.53,12.62-16.57,20.15a41.18,41.18,0,0,0-2.62,18.91c.54,6.18,1.45,12.25-1.06,18.16.71-4-.73-8-1.44-11.94-1.46-8.11-1.3-17,1.87-24.82,3-7.53,9.16-16.49,16.58-20.16l0,0,.83-.38a23.67,23.67,0,0,1,2.47-.9,22.06,22.06,0,0,1,2-3.84c2.83-4.31,7.2-8.38,12.27-8.36Z" transform="translate(-447 711)"/>
                        <path class="cls-9" d="M562.19,877.48a10.43,10.43,0,0,0-2.57,2.52,6.54,6.54,0,0,0-1.4,4.28c.19,2.23,2.28,3.14,4.26,2C565.63,884.49,563,880.17,562.19,877.48Z" transform="translate(-447 711)"/>
                        <path class="cls-16" d="M563.26,892.21l0,.27a1.59,1.59,0,0,1-3.17.3l0-.27A1.6,1.6,0,0,1,563.26,892.21Z" transform="translate(-447 711)"/>
                        <path class="cls-17" d="M554.89,928.67c-1,1-2.22,2.14-2.52,3.62a2.69,2.69,0,0,0,.28,1.93,1.55,1.55,0,0,0,2.06.45c.13-.38.26-.77.4-1.15.34-.95,1.9-.63,1.56.34,0,.07-.06.16-.09.25a.63.63,0,0,1,0,.47,2.62,2.62,0,0,1-.48.83c-.81,2.32-1.9,6-.19,6.51,1.4.4,2.59-1,3.49-1.89a9.61,9.61,0,0,1,1.6-1.21l.06-.19c.26-.89,1.57-.7,1.58.09a.85.85,0,0,1-.27,1.11c-.7,2.4-1.31,5.31.58,7.25,3.22,3.29,6.6-1.48,7.4-4.31.28-1,1.84-.66,1.56.33-1,3.58-4.21,8.08-8.56,6.2-3.3-1.44-3.48-5-2.91-8.11-1.84,1.58-3.85,3.61-6.11,1.78a3.33,3.33,0,0,1-.89-3.22,22.07,22.07,0,0,1,.71-3.28,3,3,0,0,1-2.84-1.38c-1.75-2.73.52-5.62,2.4-7.49C554.44,926.88,555.62,928,554.89,928.67Z" transform="translate(-447 711)"/>
                        <path class="cls-17" d="M532.52,969.68a23.56,23.56,0,0,0-1.09,2.94c-.12.41-.85,2.29-.49,2.61.56.52,1.72-1.81,1.92-2.13.57-.89,1.15-1.78,1.72-2.68s1.77.17,1.23,1c-.06.08-.11.17-.16.25a36.35,36.35,0,0,0-1.19,6.54,33.19,33.19,0,0,0-.08,4.23q.06,1.11.18,2.22c.76,1.05,1.18,1,1.24-.22,1.09-1.38,1.45-5,1.83-6.73.51-2.3.89-4.62,1.2-7,.14-1,1.71-.74,1.58.28a78.9,78.9,0,0,1-2.43,11.7c-.43,1.5-.79,5-3,4.78s-2.08-3.4-2.16-4.92a35.41,35.41,0,0,1,.43-7.06c-.16.22-.31.45-.49.67a1.89,1.89,0,0,1-2.68.62c-.84-.68-.78-1.93-.6-2.88a23.9,23.9,0,0,1,1.62-5A.8.8,0,0,1,532.52,969.68Z" transform="translate(-447 711)"/>
                      </g>
                      <g>
                        <path class="cls-9" d="M525.07,933.27l-4,18.21a2.31,2.31,0,0,1,.88,1.59c.1,1-1.45,1.39-1.56.37a.94.94,0,0,0,0-.16l-1.3,3.39c-.36,1-1.89.5-1.52-.47l1.38-3.6a2.1,2.1,0,0,0-1,.84,6.29,6.29,0,0,0-.51,3.38c0,1-1.57,1-1.59-.06,0-2,.13-4.42,2.11-5.53a2.9,2.9,0,0,1,1.68-.33l4-18.1C523.76,931.8,525.29,932.27,525.07,933.27Z" transform="translate(-447 711)"/>
                        <path class="cls-10" d="M523.44,929.61a34.76,34.76,0,0,0,1.16-4.83c.79,3.13,3.47,19.11-2.83,19.13a2.36,2.36,0,0,1-2.1-2.14,6.81,6.81,0,0,1,.56-3.19C521.3,935.47,522.51,932.61,523.44,929.61Z" transform="translate(-447 711)"/>
                      </g>
                    </g>
                  </g>
                </g>
              </g>
            </g>
          </g>
        </g>
        <g id="圖層_2_拷貝_6-6" data-name="圖層 2 拷貝 6">
          <g id="圖層_2_拷貝_6-7" data-name="圖層 2 拷貝 6">
            <g id="圖層_2_拷貝_6-8" data-name="圖層 2 拷貝 6">
              <g id="圖層_2_拷貝_6-9" data-name="圖層 2 拷貝 6">
                <g id="圖層_2_拷貝_6-10" data-name="圖層 2 拷貝 6">
                  <g id="圖層_7_拷貝_2-2" data-name="圖層 7 拷貝 2">
                    <path class="cls-39" d="M591.28-468.61a19.69,19.69,0,0,0-.22-2.79,51.63,51.63,0,0,0,32.14-47.81,51.51,51.51,0,0,0-18.41-39.51A35.1,35.1,0,0,0,607-570.84a35.4,35.4,0,0,0-35.4-35.4,34.5,34.5,0,0,0-4.57.33v156.46a19.65,19.65,0,0,0,4.57.55A19.71,19.71,0,0,0,591.28-468.61Z" transform="translate(-447 711)"/>
                    <path class="cls-40" d="M813.28,339.21a19.81,19.81,0,0,0-.22-2.79,51.62,51.62,0,0,0,13.73-87.32,35.31,35.31,0,0,0-33.22-47.52,34.5,34.5,0,0,0-4.57.33V358.37a19.66,19.66,0,0,0,24.28-19.16Z" transform="translate(-447 711)"/>
                    <path class="cls-41" d="M963.28,29.58a20,20,0,0,0-.22-2.8A51.63,51.63,0,0,0,995.2-21a51.54,51.54,0,0,0-18.41-39.51A35,35,0,0,0,979-72.66a35.4,35.4,0,0,0-35.4-35.4,36.27,36.27,0,0,0-4.57.33V48.73a19.62,19.62,0,0,0,24.28-19.15Z" transform="translate(-447 711)"/>
                    <path class="cls-42" d="M591.28,294a19.69,19.69,0,0,0-.22-2.79,51.62,51.62,0,0,0,13.73-87.32,35.31,35.31,0,0,0-33.22-47.52,36.28,36.28,0,0,0-4.57.32V313.19A19.66,19.66,0,0,0,591.28,294Z" transform="translate(-447 711)"/>
                    <path class="cls-43" d="M727.28-162.21a19.69,19.69,0,0,0-.22-2.79,51.65,51.65,0,0,0,32.14-47.82,51.51,51.51,0,0,0-18.41-39.5A35.11,35.11,0,0,0,743-264.45a35.4,35.4,0,0,0-35.4-35.4,36.27,36.27,0,0,0-4.57.33V-143a20.2,20.2,0,0,0,4.57.55A19.72,19.72,0,0,0,727.28-162.21Z" transform="translate(-447 711)"/>
                    <path class="cls-44" d="M963.28-521.88a19.81,19.81,0,0,0-.22-2.79,51.63,51.63,0,0,0,32.14-47.81A51.51,51.51,0,0,0,976.79-612,35.05,35.05,0,0,0,979-624.11a35.4,35.4,0,0,0-35.4-35.4,34.5,34.5,0,0,0-4.57.33v156.46a19.65,19.65,0,0,0,4.57.55A19.71,19.71,0,0,0,963.28-521.88Z" transform="translate(-447 711)"/>
                    <g id="圖層_12_拷貝_4-4" data-name="圖層 12 拷貝 4">
                      <g id="圖層_12_拷貝_4-5" data-name="圖層 12 拷貝 4">
                        <g>
                          <g>
                            <path class="cls-9" d="M809.73-521.67l-4,18.21a2.29,2.29,0,0,1,.88,1.59c.1,1-1.45,1.39-1.56.37,0-.07,0-.1,0-.16l-1.3,3.39c-.37.95-1.9.49-1.53-.47.47-1.2.93-2.4,1.39-3.61a2.19,2.19,0,0,0-1,.85,6.38,6.38,0,0,0-.5,3.38c0,1-1.57,1-1.59-.06,0-2,.13-4.42,2.11-5.53a2.8,2.8,0,0,1,1.68-.33l4-18.1C808.42-523.14,810-522.67,809.73-521.67Z" transform="translate(-447 711)"/>
                            <path class="cls-10" d="M808.1-525.33a35.46,35.46,0,0,0,1.16-4.83c.79,3.12,3.47,19.1-2.83,19.13a2.37,2.37,0,0,1-2.1-2.14,6.81,6.81,0,0,1,.56-3.19C806-519.47,807.17-522.33,808.1-525.33Z" transform="translate(-447 711)"/>
                          </g>
                          <g>
                            <path class="cls-11" d="M834.81-521.21c-1.39-6.89-2.13-22.36,1.67-27.92,3.16-4.63,9.1,2.36,12.77,1.45,4.25-1.06,8.45-3.91,12.7-2.83s8,6.32,10.66,12.24,4.48,12.68,6.92,18.83a66.14,66.14,0,0,0,12,20.05c-4.09,3.07-9,1.63-12.94-2s-7.09-9.1-10.17-14.5q1.08,9.84,2.17,19.7c-5.94-6.84-10.2-17.56-11.64-29.31l1,23.71a101.49,101.49,0,0,1-7.43-20.87,61.39,61.39,0,0,1,.79,19.06c-3-5.17-4.8-12.33-4.81-19.54-.86,1.53-.78,3.94-.46,6a22.85,22.85,0,0,1,.55,6.16c-.25,2.05-1.66,3.87-2.76,2.83-.77-.73-1-2.4-1.08-3.87l-.93-11.82a17.52,17.52,0,0,1-1.15,11.53A56.57,56.57,0,0,1,839-528.14a19.1,19.1,0,0,1,.31,7.21c-.5,2.31-2.33,3.94-3.51,2.45A6.78,6.78,0,0,1,834.81-521.21Z" transform="translate(-447 711)"/>
                            <path class="cls-12" d="M829.72-565.87a23.67,23.67,0,0,0-2.47.9l-.83.38,0,0a27.41,27.41,0,0,0-9,7.58s0,0,0,0a51.69,51.69,0,0,0-8.61,16.9c-.15.48-.29,1-.42,1.47s-.28,1-.39,1.5a41.74,41.74,0,0,0,0,17.49c.37,2,.82,4.09,1.29,6.2.4,1.75.09,5.44.48,8.5.24,2.09.78,3.9,2.1,4.63,9.76,5.44,22-16.1,25.07-20.85,5.7-8.84,10.79-18.5,12.14-28.52a37.43,37.43,0,0,0,.35-6,10.61,10.61,0,0,0-6.65-9.85A18.85,18.85,0,0,0,829.72-565.87Z" transform="translate(-447 711)"/>
                            <path class="cls-45" d="M807.83-497.25c1.9-5.57,11.4-22.16,15.77-10.35,2.18,5.9,1.3,12.37,2.68,18.35,1.64,7.11,3.79,14.23,3.65,21.53,0,1.11-.27,2.47-1.33,2.83-1.41.48-2.49-1.26-3-2.67L821-481.47a18,18,0,0,1-1.37,14.83c-.59,1-1.64,2.13-2.77,1.76-.95-.32-1.28-1.47-1.46-2.46q-1.61-8.71-3.23-17.44a21.92,21.92,0,0,1-2.45,9.24c-.78,1.51-2.46,3.13-3.93,2.27-1.08-.63-1.13-2.14-1-3.39C805.13-483.61,805.58-490.66,807.83-497.25Z" transform="translate(-447 711)"/>
                            <path class="cls-46" d="M824.74-526.9c.28-7.25,3.13-22,7.92-24.8,4-2.3,7.88,7.89,11.48,9.34,4.18,1.68,8.72,1.68,12.41,5.34s6,10.88,7.07,18,1.26,14.55,2.12,21.76a100.48,100.48,0,0,0,6.56,26.1c-4.49.29-8.71-4.13-11.53-9.92s-4.49-12.86-6.11-19.8l-2.49,19.61c-3.94-10.05-5.44-22.66-4.09-34.43q-2.25,11.28-4.51,22.56a128.73,128.73,0,0,1-2.12-24A56.06,56.06,0,0,1,837.83-499a46.13,46.13,0,0,1,0-21.1c-1.15.88-1.61,3.16-1.79,5.24s-.19,4.3-.89,6-2.42,2.55-3.2.9a7.82,7.82,0,0,1-.12-4.26q.92-5.76,1.84-11.52c0,4.1-1.48,8.11-3.7,9.95a64.62,64.62,0,0,1,.23-17c-.16,2.44-.37,5.05-1.36,6.87s-3.06,2.18-3.81.07A8.79,8.79,0,0,1,824.74-526.9Z" transform="translate(-447 711)"/>
                            <path class="cls-12" d="M831.68-569.71a22.06,22.06,0,0,0-2,3.84c-2.62,6.24-4.16,15.6-.17,20.28a8.39,8.39,0,0,0,5.72,2.81c5.57.62,10.32-2.44,13.74-6.85,3.67-4.76,5.79-11.1,5.67-16.12-.14-5.74-4.17-11.73-9.89-12.27l-.84-.05C838.88-578.09,834.51-574,831.68-569.71Z" transform="translate(-447 711)"/>
                            <path class="cls-15" d="M831.68-569.71a22.06,22.06,0,0,0-2,3.84,23.67,23.67,0,0,0-2.47.9l-.83.38,0,0c-7.42,3.67-13.54,12.63-16.58,20.16-3.17,7.84-3.33,16.71-1.87,24.82.37,2,.82,4.09,1.29,6.2.57,2.55-.13,5.13.25,7.63-.07-.45,1.62-2.4,1.9-2.89a11.26,11.26,0,0,0,1.27-3.2,29.66,29.66,0,0,1,2.28-6.81c2.23-4.66,5.32-8.85,8.2-13.12,2.45-3.61,5.17-8,6.11-12.31.11-.52.21-1,.32-1.5.73-3.73,1.18-6.59,4.25-9.76,2.74-2.88,6.1-5.26,8.15-8.66a13.33,13.33,0,0,0,.76-1.45A22.07,22.07,0,0,0,844-577.58c0-.16,0-.31-.08-.49C838.88-578.09,834.51-574,831.68-569.71Z" transform="translate(-447 711)"/>
                            <path class="cls-10" d="M844-577.83c-3.69,1.23-6.84,4.44-9.05,7.81a22.76,22.76,0,0,0-2,3.84,24.47,24.47,0,0,0-2.46.91c-.28.12-.56.24-.83.38l0,0c-7.41,3.66-13.53,12.62-16.57,20.15a41.18,41.18,0,0,0-2.62,18.91c.54,6.18,1.45,12.25-1.06,18.16.71-4-.73-8-1.44-11.94-1.46-8.11-1.3-17,1.87-24.82,3-7.53,9.16-16.49,16.58-20.16l0,0,.83-.38a23.67,23.67,0,0,1,2.47-.9,22.06,22.06,0,0,1,2-3.84c2.83-4.31,7.2-8.38,12.27-8.36Z" transform="translate(-447 711)"/>
                            <path class="cls-9" d="M845.19-584.52a10.43,10.43,0,0,0-2.57,2.52,6.54,6.54,0,0,0-1.4,4.28c.19,2.23,2.28,3.14,4.26,2C848.63-577.51,846-581.83,845.19-584.52Z" transform="translate(-447 711)"/>
                            <path class="cls-16" d="M846.26-569.79l0,.27a1.59,1.59,0,0,1-3.17.3l0-.27A1.6,1.6,0,0,1,846.26-569.79Z" transform="translate(-447 711)"/>
                            <path class="cls-17" d="M837.89-533.33c-1,1-2.22,2.14-2.52,3.62a2.69,2.69,0,0,0,.28,1.93,1.55,1.55,0,0,0,2.06.45c.13-.38.26-.77.4-1.15.34-.95,1.9-.63,1.56.34,0,.07-.06.16-.09.25a.63.63,0,0,1,0,.47,2.62,2.62,0,0,1-.48.83c-.81,2.32-1.9,6-.19,6.51,1.4.4,2.59-1,3.49-1.89a9.61,9.61,0,0,1,1.6-1.21l.06-.19c.26-.89,1.57-.7,1.58.09a.85.85,0,0,1-.27,1.11c-.7,2.4-1.31,5.31.58,7.25,3.22,3.29,6.6-1.48,7.4-4.31.28-1,1.84-.66,1.56.33-1,3.58-4.21,8.08-8.56,6.2-3.3-1.44-3.48-5-2.91-8.11-1.84,1.58-3.85,3.61-6.11,1.78a3.33,3.33,0,0,1-.89-3.22,22.07,22.07,0,0,1,.71-3.28,3,3,0,0,1-2.84-1.38c-1.75-2.73.52-5.62,2.4-7.49C837.44-535.12,838.62-534,837.89-533.33Z" transform="translate(-447 711)"/>
                            <path class="cls-17" d="M815.52-492.32a23.56,23.56,0,0,0-1.09,2.94c-.12.41-.85,2.29-.49,2.61.56.52,1.72-1.81,1.92-2.13.57-.89,1.15-1.78,1.72-2.68s1.77.17,1.23,1c-.06.08-.11.17-.16.25a36.35,36.35,0,0,0-1.19,6.54,33.19,33.19,0,0,0-.08,4.23q.06,1.11.18,2.22c.76,1.05,1.18,1,1.24-.22,1.09-1.38,1.45-5,1.83-6.73.51-2.3.89-4.62,1.2-7,.14-1,1.71-.74,1.58.28a78.9,78.9,0,0,1-2.43,11.7c-.43,1.5-.79,5-3,4.78s-2.08-3.4-2.16-4.92a35.41,35.41,0,0,1,.43-7.06c-.16.22-.31.45-.49.67a1.89,1.89,0,0,1-2.68.62c-.84-.68-.78-1.93-.6-2.88a23.9,23.9,0,0,1,1.62-4.95A.8.8,0,0,1,815.52-492.32Z" transform="translate(-447 711)"/>
                          </g>
                          <g>
                            <path class="cls-9" d="M808.07-528.73l-4,18.21a2.31,2.31,0,0,1,.88,1.59c.1,1-1.45,1.39-1.56.37a.94.94,0,0,0,0-.16l-1.3,3.39c-.36,1-1.89.5-1.52-.47l1.38-3.6a2.1,2.1,0,0,0-1,.84,6.29,6.29,0,0,0-.51,3.38c0,1-1.57,1-1.59-.06,0-2,.13-4.42,2.11-5.53a2.9,2.9,0,0,1,1.68-.33l4-18.1C806.76-530.2,808.29-529.73,808.07-528.73Z" transform="translate(-447 711)"/>
                            <path class="cls-10" d="M806.44-532.39a34.76,34.76,0,0,0,1.16-4.83c.79,3.13,3.47,19.11-2.83,19.13a2.36,2.36,0,0,1-2.1-2.14,6.81,6.81,0,0,1,.56-3.19C804.3-526.53,805.51-529.39,806.44-532.39Z" transform="translate(-447 711)"/>
                          </g>
                        </g>
                        <g id="圖層_12_拷貝_4-6" data-name="圖層 12 拷貝 4">
                          <g>
                            <g>
                              <path class="cls-9" d="M844.73,71.33l-4,18.21a2.29,2.29,0,0,1,.88,1.59c.1,1-1.45,1.39-1.56.37,0-.07,0-.1,0-.16l-1.3,3.39c-.37,1-1.9.49-1.53-.47.47-1.2.93-2.4,1.39-3.61a2.19,2.19,0,0,0-1,.85,6.38,6.38,0,0,0-.5,3.38c0,1-1.57,1-1.59-.06,0-2,.13-4.42,2.11-5.53a2.8,2.8,0,0,1,1.68-.33l4-18.1C843.42,69.86,845,70.33,844.73,71.33Z" transform="translate(-447 711)"/>
                              <path class="cls-10" d="M843.1,67.67a35.46,35.46,0,0,0,1.16-4.83c.79,3.12,3.47,19.1-2.83,19.13a2.37,2.37,0,0,1-2.1-2.14,6.81,6.81,0,0,1,.56-3.19C841,73.53,842.17,70.67,843.1,67.67Z" transform="translate(-447 711)"/>
                            </g>
                            <g>
                              <path class="cls-11" d="M869.81,71.79c-1.39-6.89-2.13-22.36,1.67-27.92,3.16-4.63,9.1,2.36,12.77,1.45,4.25-1.06,8.45-3.91,12.7-2.83s8,6.32,10.66,12.24,4.48,12.68,6.92,18.83a66.14,66.14,0,0,0,12,20c-4.09,3.07-9,1.63-12.94-2s-7.09-9.1-10.17-14.5q1.08,9.84,2.17,19.7C899.68,90,895.42,79.29,894,67.54l1,23.71a101.49,101.49,0,0,1-7.43-20.87,61.39,61.39,0,0,1,.79,19.06c-3-5.17-4.8-12.33-4.81-19.54-.86,1.53-.78,3.94-.46,6a22.85,22.85,0,0,1,.55,6.16c-.25,2-1.66,3.87-2.76,2.83-.77-.73-1-2.4-1.08-3.87l-.93-11.82a17.52,17.52,0,0,1-1.15,11.53A56.57,56.57,0,0,1,874,64.86a19.1,19.1,0,0,1,.31,7.21c-.5,2.31-2.33,3.94-3.51,2.45A6.78,6.78,0,0,1,869.81,71.79Z" transform="translate(-447 711)"/>
                              <path class="cls-12" d="M864.72,27.13a23.67,23.67,0,0,0-2.47.9l-.83.38,0,0a27.41,27.41,0,0,0-9,7.58s0,0,0,0A51.69,51.69,0,0,0,843.75,53c-.15.48-.29,1-.42,1.47s-.28,1-.39,1.5a41.74,41.74,0,0,0,0,17.49c.37,2,.82,4.09,1.29,6.2.4,1.75.09,5.44.48,8.5.24,2.09.78,3.9,2.1,4.63,9.76,5.44,22-16.1,25.07-20.85,5.7-8.84,10.79-18.5,12.14-28.52a37.43,37.43,0,0,0,.35-6,10.61,10.61,0,0,0-6.65-9.85A18.85,18.85,0,0,0,864.72,27.13Z" transform="translate(-447 711)"/>
                              <path class="cls-47" d="M842.83,95.75c1.9-5.57,11.4-22.16,15.77-10.35,2.18,5.9,1.3,12.37,2.68,18.35,1.64,7.11,3.79,14.23,3.65,21.53,0,1.11-.27,2.47-1.33,2.83-1.41.48-2.49-1.26-3-2.67L856,111.53a18,18,0,0,1-1.37,14.83c-.59,1-1.64,2.13-2.77,1.76-.95-.32-1.28-1.47-1.46-2.46q-1.61-8.72-3.23-17.44a21.92,21.92,0,0,1-2.45,9.24c-.78,1.51-2.46,3.13-3.93,2.27-1.08-.63-1.13-2.14-1-3.39C840.13,109.39,840.58,102.34,842.83,95.75Z" transform="translate(-447 711)"/>
                              <path class="cls-48" d="M859.74,66.1c.28-7.25,3.13-22,7.92-24.8,4-2.3,7.88,7.89,11.48,9.34,4.18,1.68,8.72,1.68,12.41,5.34s6,10.88,7.07,18,1.26,14.55,2.12,21.76a100.48,100.48,0,0,0,6.56,26.1c-4.49.29-8.71-4.13-11.53-9.92s-4.49-12.86-6.11-19.8l-2.49,19.61c-3.94-10-5.44-22.66-4.09-34.43q-2.25,11.28-4.51,22.56a128.73,128.73,0,0,1-2.12-24A56.06,56.06,0,0,1,872.83,94a46.13,46.13,0,0,1,0-21.1c-1.15.88-1.61,3.16-1.79,5.24s-.19,4.3-.89,6-2.42,2.55-3.2.9a7.82,7.82,0,0,1-.12-4.26q.92-5.76,1.84-11.52c0,4.1-1.48,8.11-3.7,10a64.62,64.62,0,0,1,.23-17c-.16,2.44-.37,5-1.36,6.87s-3.06,2.18-3.81.07A8.79,8.79,0,0,1,859.74,66.1Z" transform="translate(-447 711)"/>
                              <path class="cls-12" d="M866.68,23.29a22.06,22.06,0,0,0-2,3.84c-2.62,6.24-4.16,15.6-.17,20.28a8.39,8.39,0,0,0,5.72,2.81c5.57.62,10.32-2.44,13.74-6.85,3.67-4.76,5.79-11.1,5.67-16.12-.14-5.74-4.17-11.73-9.89-12.27l-.84-.05C873.88,14.91,869.51,19,866.68,23.29Z" transform="translate(-447 711)"/>
                              <path class="cls-15" d="M866.68,23.29a22.06,22.06,0,0,0-2,3.84,23.67,23.67,0,0,0-2.47.9l-.83.38,0,0C854,32.1,847.84,41.06,844.8,48.59c-3.17,7.84-3.33,16.71-1.87,24.82.37,2,.82,4.09,1.29,6.2.57,2.55-.13,5.13.25,7.63-.07-.45,1.62-2.4,1.9-2.89a11.26,11.26,0,0,0,1.27-3.2,29.66,29.66,0,0,1,2.28-6.81c2.23-4.66,5.32-8.85,8.2-13.12,2.45-3.61,5.17-8,6.11-12.31.11-.52.21-1,.32-1.5.73-3.73,1.18-6.59,4.25-9.76,2.74-2.88,6.1-5.26,8.15-8.66a13.33,13.33,0,0,0,.76-1.45A22.07,22.07,0,0,0,879,15.42c0-.16,0-.31-.08-.49C873.88,14.91,869.51,19,866.68,23.29Z" transform="translate(-447 711)"/>
                              <path class="cls-10" d="M879,15.17c-3.69,1.23-6.84,4.44-9.05,7.81a22.76,22.76,0,0,0-2,3.84,24.47,24.47,0,0,0-2.46.91c-.28.12-.56.24-.83.38l0,0c-7.41,3.66-13.53,12.62-16.57,20.15a41.18,41.18,0,0,0-2.62,18.91c.54,6.18,1.45,12.25-1.06,18.16.71-4-.73-8-1.44-11.94-1.46-8.11-1.3-17,1.87-24.82,3-7.53,9.16-16.49,16.58-20.16l0,0,.83-.38a23.67,23.67,0,0,1,2.47-.9,22.06,22.06,0,0,1,2-3.84c2.83-4.31,7.2-8.38,12.27-8.36Z" transform="translate(-447 711)"/>
                              <path class="cls-9" d="M880.19,8.48A10.43,10.43,0,0,0,877.62,11a6.54,6.54,0,0,0-1.4,4.28c.19,2.23,2.28,3.14,4.26,2C883.63,15.49,881,11.17,880.19,8.48Z" transform="translate(-447 711)"/>
                              <path class="cls-16" d="M881.26,23.21l0,.27a1.59,1.59,0,0,1-3.17.3l0-.27A1.6,1.6,0,0,1,881.26,23.21Z" transform="translate(-447 711)"/>
                              <path class="cls-17" d="M872.89,59.67c-1,1-2.22,2.14-2.52,3.62a2.69,2.69,0,0,0,.28,1.93,1.55,1.55,0,0,0,2.06.45c.13-.38.26-.77.4-1.15.34-.95,1.9-.63,1.56.34,0,.07-.06.16-.09.25a.63.63,0,0,1,0,.47,2.62,2.62,0,0,1-.48.83c-.81,2.32-1.9,6-.19,6.51,1.4.4,2.59-1,3.49-1.89a9.61,9.61,0,0,1,1.6-1.21l.06-.19c.26-.89,1.57-.7,1.58.09a.85.85,0,0,1-.27,1.11c-.7,2.4-1.31,5.31.58,7.25,3.22,3.29,6.6-1.48,7.4-4.31.28-1,1.84-.66,1.56.33-1,3.58-4.21,8.08-8.56,6.2-3.3-1.44-3.48-5-2.91-8.11-1.84,1.58-3.85,3.61-6.11,1.78a3.33,3.33,0,0,1-.89-3.22,22.07,22.07,0,0,1,.71-3.28,3,3,0,0,1-2.84-1.38c-1.75-2.73.52-5.62,2.4-7.49C872.44,57.88,873.62,59,872.89,59.67Z" transform="translate(-447 711)"/>
                              <path class="cls-17" d="M850.52,100.68a23.56,23.56,0,0,0-1.09,2.94c-.12.41-.85,2.29-.49,2.61.56.52,1.72-1.81,1.92-2.13.57-.89,1.15-1.78,1.72-2.68s1.77.17,1.23,1c-.06.08-.11.17-.16.25a36.35,36.35,0,0,0-1.19,6.54,33.19,33.19,0,0,0-.08,4.23q.06,1.11.18,2.22c.76,1,1.18,1,1.24-.22,1.09-1.38,1.45-5,1.83-6.73.51-2.3.89-4.62,1.2-7,.14-1,1.71-.74,1.58.28a78.9,78.9,0,0,1-2.43,11.7c-.43,1.5-.79,5-3,4.78s-2.08-3.4-2.16-4.92a35.41,35.41,0,0,1,.43-7.06c-.16.22-.31.45-.49.67a1.89,1.89,0,0,1-2.68.62c-.84-.68-.78-1.93-.6-2.88a23.9,23.9,0,0,1,1.62-4.95A.8.8,0,0,1,850.52,100.68Z" transform="translate(-447 711)"/>
                            </g>
                            <g>
                              <path class="cls-9" d="M843.07,64.27l-4,18.21a2.31,2.31,0,0,1,.88,1.59c.1,1-1.45,1.39-1.56.37a.94.94,0,0,0,0-.16L837,87.67c-.36,1-1.89.5-1.52-.47l1.38-3.6a2.1,2.1,0,0,0-1,.84,6.29,6.29,0,0,0-.51,3.38c0,1-1.57,1-1.59-.06,0-2,.13-4.42,2.11-5.53a2.9,2.9,0,0,1,1.68-.33l4-18.1C841.76,62.8,843.29,63.27,843.07,64.27Z" transform="translate(-447 711)"/>
                              <path class="cls-10" d="M841.44,60.61a34.76,34.76,0,0,0,1.16-4.83c.79,3.13,3.47,19.11-2.83,19.13a2.36,2.36,0,0,1-2.1-2.14,6.81,6.81,0,0,1,.56-3.19C839.3,66.47,840.51,63.61,841.44,60.61Z" transform="translate(-447 711)"/>
                            </g>
                          </g>
                        </g>
                      </g>
                    </g>
                  </g>
                </g>
              </g>
            </g>
          </g>
          <g id="圖層_40_拷貝_3" data-name="圖層 40 拷貝 3">
            <g>
              <path class="cls-11" d="M780.91,1176c5.06-4.7,13.1-17.06,10.37-24.57-2.27-6.24-13.67-4.88-18.32-8.39-5.4-4.08-9.93-9.63-16.3-11.92-6.58-2.37-14-.77-20.31,2.2s-12,7.21-18.12,10.51a67.36,67.36,0,0,1-25.75,7.69c4.26,5.65,11.72,8.14,18.79,8.1s13.94-2.26,20.67-4.45L720,1170a45.25,45.25,0,0,0,29.42-15.72l-12.1,19.08a76.2,76.2,0,0,0,19.76-11.85,35.75,35.75,0,0,0-9.75,15.33,27,27,0,0,0,15.54-12.7c.49,1.93-.72,3.88-2.08,5.34s-3,2.82-3.56,4.72.54,4.49,2.53,4.45c1.41,0,2.44-1.28,3.26-2.42l6.65-9.17a10.77,10.77,0,0,0-3.65,10.49A37.27,37.27,0,0,0,778.26,1167c-1.64,1.67-3.35,3.49-3.71,5.79s1.45,5,3.76,4.69A5.14,5.14,0,0,0,780.91,1176Z" transform="translate(-447 711)"/>
              <g>
                <g>
                  <path class="cls-9" d="M774.16,1183.52l8.1,15.77a2.21,2.21,0,0,1,1.61.63c.69.68-.22,1.9-.91,1.21a1.46,1.46,0,0,1-.13-.09c.37,1.09.74,2.18,1.1,3.27.31.92-1.09,1.52-1.4.59l-1.17-3.48a2,2,0,0,0-.25,1.24,6,6,0,0,0,1.69,2.78c.63.74-.57,1.66-1.21.92-1.25-1.45-2.58-3.31-1.81-5.32a2.74,2.74,0,0,1,1-1.27l-8-15.66C772.32,1183.24,773.72,1182.66,774.16,1183.52Z" transform="translate(-447 711)"/>
                  <path class="cls-10" d="M770.75,1181.83a33.79,33.79,0,0,0-2.07-4.24c2.47,1.81,14.12,11.89,9.52,15.72a2.23,2.23,0,0,1-2.83-.29,6.55,6.55,0,0,1-1.53-2.68C772.74,1187.41,771.89,1184.59,770.75,1181.83Z" transform="translate(-447 711)"/>
                </g>
                <g>
                  <path class="cls-12" d="M762,1139q-.68,1-1.26,2.16c-.13.26-.25.52-.37.78,0,0,0,0,0,0a26,26,0,0,0-2,11s0,0,0,0a49.23,49.23,0,0,0,3.95,17.59c.18.44.37.88.58,1.33s.4.9.62,1.33a39.75,39.75,0,0,0,10.6,12.82c1.5,1.26,3.08,2.5,4.7,3.75,1.36,1,3.37,3.93,5.51,5.93,1.45,1.39,2.94,2.39,4.34,2.12,10.45-1.93,6.35-25.13,5.72-30.46-1.19-9.93-3.33-20.09-8.41-28.24a35.39,35.39,0,0,0-3.37-4.59,10.09,10.09,0,0,0-10.84-3.18A18,18,0,0,0,762,1139Z" transform="translate(-447 711)"/>
                  <path class="cls-49" d="M787.59,1202.55c-2-5.23-5.1-23.13,5.26-17.14,5.18,3,8.45,8.28,13.09,11.81,5.51,4.21,11.4,8.12,15.72,13.55.67.83,1.31,2,.75,2.88-.74,1.21-2.59.59-3.8-.16l-11.86-7.34a17.19,17.19,0,0,1,8,11.69c.18,1.11.08,2.55-1,3-.89.35-1.82-.3-2.55-.91l-12.94-10.81a20.88,20.88,0,0,1,3.8,8.25c.35,1.58.1,3.78-1.5,4-1.17.2-2.13-.88-2.83-1.84C793.87,1214.18,789.94,1208.74,787.59,1202.55Z" transform="translate(-447 711)"/>
                  <path class="cls-12" d="M761.11,1135a21.56,21.56,0,0,0,.89,4c1.87,6.16,6.42,14,12.18,15a7.93,7.93,0,0,0,5.89-1.41c4.45-2.92,6.07-8,5.9-13.34a25.84,25.84,0,0,0-5.62-15.24c-3.59-4.12-10.16-6.06-14.68-3l-.65.47C761.3,1124.55,760.57,1130.17,761.11,1135Z" transform="translate(-447 711)"/>
                  <path class="cls-15" d="M761.11,1135a21.56,21.56,0,0,0,.89,4q-.68,1-1.26,2.16c-.13.26-.25.52-.37.78,0,0,0,0,0,0-3.21,7.17-2.26,17.44.08,24.8,2.44,7.66,7.69,14.26,13.68,19.31,1.5,1.26,3.08,2.5,4.7,3.75,2,1.53,3,3.83,4.82,5.44-.33-.3-.28-2.74-.37-3.27a10.32,10.32,0,0,0-1-3.11,28.08,28.08,0,0,1-2.45-6.37c-1.2-4.77-1.48-9.7-1.95-14.58-.4-4.13-1.07-9-3-12.71-.23-.45-.46-.87-.67-1.3-1.73-3.16-3.14-5.54-2.81-9.72.26-3.77,1.27-7.54.71-11.28a13.25,13.25,0,0,0-.32-1.52,20.82,20.82,0,0,0-6.38-9.67c-.11-.11-.23-.2-.36-.31C761.3,1124.55,760.57,1130.17,761.11,1135Z" transform="translate(-447 711)"/>
                  <path class="cls-10" d="M765.2,1121.64c-2,3.14-2.32,7.4-1.9,11.21a21.56,21.56,0,0,0,.89,4,22.92,22.92,0,0,0-1.25,2.16c-.13.26-.26.51-.38.78,0,0,0,0,0,0-3.21,7.17-2.25,17.44.08,24.8a39.39,39.39,0,0,0,9.54,15.43c4.15,4.19,8.5,8.08,10.24,13.93-1.91-3.36-5.41-5.44-8.29-7.86-6-5.05-11.24-11.65-13.68-19.31-2.34-7.36-3.29-17.63-.08-24.8,0,0,0,0,0,0,.12-.26.24-.52.37-.78q.59-1.12,1.26-2.16a21.56,21.56,0,0,1-.89-4c-.54-4.87.19-10.49,3.91-13.55Z" transform="translate(-447 711)"/>
                  <path class="cls-9" d="M762,1116a10,10,0,0,0-.35,3.41,6.25,6.25,0,0,0,1.57,4c1.49,1.52,3.57.91,4.33-1.12C768.79,1119.06,764.22,1117.51,762,1116Z" transform="translate(-447 711)"/>
                  <path class="cls-16" d="M771.74,1126.15l.18.18a1.52,1.52,0,0,1-2.15,2.15l-.18-.18A1.52,1.52,0,0,1,771.74,1126.15Z" transform="translate(-447 711)"/>
                  <path class="cls-11" d="M796.2,1201.5a23.36,23.36,0,0,0,1,2.81c.17.37.77,2.19,1.23,2.22.72,0,.16-2.37.12-2.73-.13-1-.25-2-.37-3s1.4-1,1.52,0a2.51,2.51,0,0,0,0,.27,34.51,34.51,0,0,0,3.08,5.51,31.61,31.61,0,0,0,2.52,3.15c.47.52,1,1,1.47,1.51,1.19.3,1.45,0,.77-.91,0-1.68-2-4.55-2.74-6-1-2-2.14-3.93-3.33-5.83-.52-.83.8-1.58,1.32-.75a75.84,75.84,0,0,1,5.32,10c.59,1.36,2.46,4.14.67,5.33s-3.58-1.22-4.56-2.29a33.44,33.44,0,0,1-4-5.43c0,.26.05.52.05.78,0,1-.45,2.06-1.59,2.08s-1.74-.93-2.18-1.74a22.34,22.34,0,0,1-1.82-4.61A.76.76,0,0,1,796.2,1201.5Z" transform="translate(-447 711)"/>
                </g>
                <g>
                  <path class="cls-9" d="M768.67,1179.36l8.1,15.77a2.23,2.23,0,0,1,1.61.63c.69.68-.22,1.9-.92,1.21l-.12-.09c.36,1.09.73,2.18,1.1,3.27.31.92-1.09,1.51-1.4.59-.39-1.16-.78-2.32-1.18-3.48a2.09,2.09,0,0,0-.24,1.24,6.07,6.07,0,0,0,1.68,2.78c.64.74-.57,1.66-1.2.92-1.26-1.45-2.58-3.31-1.81-5.32a2.74,2.74,0,0,1,1-1.27q-4-7.83-8.05-15.66C766.82,1179.08,768.23,1178.5,768.67,1179.36Z" transform="translate(-447 711)"/>
                  <path class="cls-10" d="M765.26,1177.67a33.88,33.88,0,0,0-2.08-4.24c2.47,1.81,14.13,11.88,9.53,15.72a2.24,2.24,0,0,1-2.84-.29,6.43,6.43,0,0,1-1.52-2.68C767.25,1183.25,766.4,1180.43,765.26,1177.67Z" transform="translate(-447 711)"/>
                </g>
              </g>
              <path class="cls-50" d="M787.52,1179.06c2.48-6.45,4.25-21.09-1.51-26.62-4.79-4.6-14.42,1.64-20.15.54-6.64-1.29-13.15-4.28-19.88-3.53-6.94.78-12.88,5.48-17.26,10.93s-7.56,11.75-11.64,17.42a67.49,67.49,0,0,1-19.72,18.25c6.31,3.19,14.1,2.14,20.44-1s11.51-8.17,16.58-13.1l-4.2,18.57a45.28,45.28,0,0,0,19.49-27.07q-1.23,11.22-2.47,22.46a76,76,0,0,0,12.53-19.34,35.71,35.71,0,0,0-2,18,27,27,0,0,0,8.35-18.24c1.3,1.51,1.06,3.79.49,5.7s-1.42,3.84-1.11,5.81,2.46,3.79,4.23,2.88c1.24-.65,1.62-2.22,1.86-3.61l1.92-11.16a10.79,10.79,0,0,0,1.35,11,37.13,37.13,0,0,0,6.39-14.8c-.74,2.21-1.48,4.6-.78,6.83s3.52,3.89,5.44,2.55A5.1,5.1,0,0,0,787.52,1179.06Z" transform="translate(-447 711)"/>
            </g>
          </g>
          <g id="圖層_40_拷貝_3-2" data-name="圖層 40 拷貝 3">
            <g>
              <path class="cls-11" d="M885.91,585c5.06-4.7,13.1-17.06,10.37-24.57C894,554.16,882.61,555.52,878,552c-5.4-4.08-9.93-9.63-16.3-11.92-6.58-2.37-14-.77-20.31,2.2s-12,7.21-18.12,10.51a67.36,67.36,0,0,1-25.75,7.69c4.26,5.65,11.72,8.14,18.79,8.1s13.94-2.26,20.67-4.45L825,579a45.25,45.25,0,0,0,29.42-15.72l-12.1,19.08a76.2,76.2,0,0,0,19.76-11.85,35.75,35.75,0,0,0-9.75,15.33,27,27,0,0,0,15.54-12.7c.49,1.93-.72,3.88-2.08,5.34s-3,2.82-3.56,4.72.54,4.49,2.53,4.45c1.41,0,2.44-1.28,3.26-2.42l6.65-9.17A10.77,10.77,0,0,0,871,586.51,37.27,37.27,0,0,0,883.26,576c-1.64,1.67-3.35,3.49-3.71,5.79s1.45,5,3.76,4.69A5.14,5.14,0,0,0,885.91,585Z" transform="translate(-447 711)"/>
              <g>
                <g>
                  <path class="cls-9" d="M879.16,592.52l8.1,15.77a2.21,2.21,0,0,1,1.61.63c.69.68-.22,1.9-.91,1.21a1.46,1.46,0,0,1-.13-.09c.37,1.09.74,2.18,1.1,3.27.31.92-1.09,1.52-1.4.59l-1.17-3.48a2,2,0,0,0-.25,1.24,6,6,0,0,0,1.69,2.78c.63.74-.57,1.66-1.21.92-1.25-1.45-2.58-3.31-1.81-5.32a2.74,2.74,0,0,1,1-1.27l-8-15.66C877.32,592.24,878.72,591.66,879.16,592.52Z" transform="translate(-447 711)"/>
                  <path class="cls-10" d="M875.75,590.83a33.79,33.79,0,0,0-2.07-4.24c2.47,1.81,14.12,11.89,9.52,15.72a2.23,2.23,0,0,1-2.83-.29,6.55,6.55,0,0,1-1.53-2.68C877.74,596.41,876.89,593.59,875.75,590.83Z" transform="translate(-447 711)"/>
                </g>
                <g>
                  <path class="cls-12" d="M867,548q-.68,1-1.26,2.16c-.13.26-.25.52-.37.78,0,0,0,0,0,0a26,26,0,0,0-2,11s0,0,0,0a49.23,49.23,0,0,0,3.95,17.59c.18.44.37.88.58,1.33s.4.9.62,1.33a39.75,39.75,0,0,0,10.6,12.82c1.5,1.26,3.08,2.5,4.7,3.75,1.36,1,3.37,3.93,5.51,5.93,1.45,1.39,2.94,2.39,4.34,2.12,10.45-1.93,6.35-25.13,5.72-30.46-1.19-9.93-3.33-20.09-8.41-28.24a35.39,35.39,0,0,0-3.37-4.59,10.09,10.09,0,0,0-10.84-3.18A18,18,0,0,0,867,548Z" transform="translate(-447 711)"/>
                  <path class="cls-51" d="M892.59,611.55c-2-5.23-5.1-23.13,5.26-17.14,5.18,3,8.45,8.28,13.09,11.81,5.51,4.21,11.4,8.12,15.72,13.55.67.83,1.31,2,.75,2.88-.74,1.21-2.59.59-3.8-.16l-11.86-7.34a17.19,17.19,0,0,1,8,11.69c.18,1.11.08,2.55-1,3-.89.35-1.82-.3-2.55-.91l-12.94-10.81a20.88,20.88,0,0,1,3.8,8.25c.35,1.58.1,3.78-1.5,4-1.17.2-2.13-.88-2.83-1.84C898.87,623.18,894.94,617.74,892.59,611.55Z" transform="translate(-447 711)"/>
                  <path class="cls-12" d="M866.11,544a21.56,21.56,0,0,0,.89,4c1.87,6.16,6.42,14,12.18,15a7.93,7.93,0,0,0,5.89-1.41c4.45-2.92,6.07-8,5.9-13.34A25.84,25.84,0,0,0,885.35,533c-3.59-4.12-10.16-6.06-14.68-3l-.65.47C866.3,533.55,865.57,539.17,866.11,544Z" transform="translate(-447 711)"/>
                  <path class="cls-15" d="M866.11,544a21.56,21.56,0,0,0,.89,4q-.68,1-1.26,2.16c-.13.26-.25.52-.37.78,0,0,0,0,0,0-3.21,7.17-2.26,17.44.08,24.8,2.44,7.66,7.69,14.26,13.68,19.31,1.5,1.26,3.08,2.5,4.7,3.75,2,1.53,3,3.83,4.82,5.44-.33-.3-.28-2.74-.37-3.27a10.32,10.32,0,0,0-1-3.11,28.08,28.08,0,0,1-2.45-6.37c-1.2-4.77-1.48-9.7-1.95-14.58-.4-4.13-1.07-9-3-12.71-.23-.45-.46-.87-.67-1.3-1.73-3.16-3.14-5.54-2.81-9.72.26-3.77,1.27-7.54.71-11.28a13.25,13.25,0,0,0-.32-1.52,20.82,20.82,0,0,0-6.38-9.67c-.11-.11-.23-.2-.36-.31C866.3,533.55,865.57,539.17,866.11,544Z" transform="translate(-447 711)"/>
                  <path class="cls-10" d="M870.2,530.64c-2,3.14-2.32,7.4-1.9,11.21a21.56,21.56,0,0,0,.89,4,22.92,22.92,0,0,0-1.25,2.16c-.13.26-.26.51-.38.78,0,0,0,0,0,.05-3.21,7.17-2.25,17.44.08,24.8a39.39,39.39,0,0,0,9.54,15.43c4.15,4.19,8.5,8.08,10.24,13.93-1.91-3.36-5.41-5.44-8.29-7.86-6-5-11.24-11.65-13.68-19.31-2.34-7.36-3.29-17.63-.08-24.8,0,0,0,0,0,0,.12-.26.24-.52.37-.78q.59-1.12,1.26-2.16a21.56,21.56,0,0,1-.89-4c-.54-4.87.19-10.49,3.91-13.55Z" transform="translate(-447 711)"/>
                  <path class="cls-9" d="M867,525a10,10,0,0,0-.35,3.41,6.25,6.25,0,0,0,1.57,4c1.49,1.52,3.57.91,4.33-1.12C873.79,528.06,869.22,526.51,867,525Z" transform="translate(-447 711)"/>
                  <path class="cls-16" d="M876.74,535.15l.18.18a1.52,1.52,0,0,1-2.15,2.15l-.18-.18A1.52,1.52,0,0,1,876.74,535.15Z" transform="translate(-447 711)"/>
                  <path class="cls-11" d="M901.2,610.5a23.36,23.36,0,0,0,1,2.81c.17.37.77,2.19,1.23,2.22.72,0,.16-2.37.12-2.73-.13-1-.25-2-.37-3s1.4-1,1.52,0a2.51,2.51,0,0,0,0,.27,34.51,34.51,0,0,0,3.08,5.51,31.61,31.61,0,0,0,2.52,3.15c.47.52,1,1,1.47,1.51,1.19.3,1.45,0,.77-.91,0-1.68-2-4.55-2.74-6-1-2-2.14-3.93-3.33-5.83-.52-.83.8-1.58,1.32-.75a75.84,75.84,0,0,1,5.32,10c.59,1.36,2.46,4.14.67,5.33s-3.58-1.22-4.56-2.29a33.44,33.44,0,0,1-4-5.43c0,.26.05.52.05.78,0,1-.45,2.06-1.59,2.08s-1.74-.93-2.18-1.74a22.34,22.34,0,0,1-1.82-4.61A.76.76,0,0,1,901.2,610.5Z" transform="translate(-447 711)"/>
                </g>
                <g>
                  <path class="cls-9" d="M873.67,588.36l8.1,15.77a2.23,2.23,0,0,1,1.61.63c.69.68-.22,1.9-.92,1.21l-.12-.09c.36,1.09.73,2.18,1.1,3.27.31.92-1.09,1.51-1.4.59-.39-1.16-.78-2.32-1.18-3.48a2.09,2.09,0,0,0-.24,1.24,6.07,6.07,0,0,0,1.68,2.78c.64.74-.57,1.66-1.2.92-1.26-1.45-2.58-3.31-1.81-5.32a2.74,2.74,0,0,1,1-1.27q-4-7.83-8.05-15.66C871.82,588.08,873.23,587.5,873.67,588.36Z" transform="translate(-447 711)"/>
                  <path class="cls-10" d="M870.26,586.67a33.88,33.88,0,0,0-2.08-4.24c2.47,1.81,14.13,11.88,9.53,15.72a2.24,2.24,0,0,1-2.84-.29,6.43,6.43,0,0,1-1.52-2.68C872.25,592.25,871.4,589.43,870.26,586.67Z" transform="translate(-447 711)"/>
                </g>
              </g>
              <path class="cls-52" d="M892.52,588.06c2.48-6.45,4.25-21.09-1.51-26.62-4.79-4.6-14.42,1.64-20.15.54-6.64-1.29-13.15-4.28-19.88-3.53-6.94.78-12.88,5.48-17.26,10.93s-7.56,11.75-11.64,17.42a67.49,67.49,0,0,1-19.72,18.25c6.31,3.19,14.1,2.14,20.44-1s11.51-8.17,16.58-13.1l-4.2,18.57a45.28,45.28,0,0,0,19.49-27.07q-1.23,11.22-2.47,22.46a76,76,0,0,0,12.53-19.34,35.71,35.71,0,0,0-2,18.05,27,27,0,0,0,8.35-18.24c1.3,1.51,1.06,3.79.49,5.7s-1.42,3.84-1.11,5.81,2.46,3.79,4.23,2.88c1.24-.65,1.62-2.22,1.86-3.61L878.47,585a10.79,10.79,0,0,0,1.35,11,37.13,37.13,0,0,0,6.39-14.8c-.74,2.21-1.48,4.6-.78,6.83s3.52,3.89,5.44,2.55A5.1,5.1,0,0,0,892.52,588.06Z" transform="translate(-447 711)"/>
            </g>
          </g>
          <g id="圖層_40_拷貝_3-3" data-name="圖層 40 拷貝 3">
            <g>
              <path class="cls-11" d="M574.91-153c5.06-4.7,13.1-17.06,10.37-24.57C583-183.84,571.61-182.48,567-186c-5.4-4.08-9.93-9.63-16.3-11.92-6.58-2.37-14-.77-20.31,2.2s-12,7.21-18.12,10.51a67.36,67.36,0,0,1-25.75,7.69c4.26,5.65,11.72,8.14,18.79,8.1s13.94-2.26,20.67-4.45L514-159a45.25,45.25,0,0,0,29.42-15.72l-12.1,19.08a76.2,76.2,0,0,0,19.76-11.85,35.75,35.75,0,0,0-9.75,15.33,27,27,0,0,0,15.54-12.7c.49,1.93-.72,3.88-2.08,5.34s-3,2.82-3.56,4.72.54,4.49,2.53,4.45c1.41,0,2.44-1.28,3.26-2.42l6.65-9.17A10.77,10.77,0,0,0,560-151.49,37.27,37.27,0,0,0,572.26-162c-1.64,1.67-3.35,3.49-3.71,5.79s1.45,5.05,3.76,4.69A5.14,5.14,0,0,0,574.91-153Z" transform="translate(-447 711)"/>
              <g>
                <g>
                  <path class="cls-9" d="M568.16-145.48l8.1,15.77a2.21,2.21,0,0,1,1.61.63c.69.68-.22,1.9-.91,1.21a1.46,1.46,0,0,1-.13-.09c.37,1.09.74,2.18,1.1,3.27.31.92-1.09,1.52-1.4.59l-1.17-3.48a2,2,0,0,0-.25,1.24,6,6,0,0,0,1.69,2.78c.63.74-.57,1.66-1.21.92-1.25-1.45-2.58-3.31-1.81-5.32a2.74,2.74,0,0,1,1-1.27l-8-15.66C566.32-145.76,567.72-146.34,568.16-145.48Z" transform="translate(-447 711)"/>
                  <path class="cls-10" d="M564.75-147.17a33.79,33.79,0,0,0-2.07-4.24c2.47,1.81,14.12,11.89,9.52,15.72a2.23,2.23,0,0,1-2.83-.29,6.55,6.55,0,0,1-1.53-2.68C566.74-141.59,565.89-144.41,564.75-147.17Z" transform="translate(-447 711)"/>
                </g>
                <g>
                  <path class="cls-12" d="M556-190q-.68,1-1.26,2.16c-.13.26-.25.52-.37.78,0,0,0,0,0,.05a26,26,0,0,0-2,11s0,0,0,0a49.23,49.23,0,0,0,3.95,17.59c.18.44.37.88.58,1.33s.4.9.62,1.33a39.75,39.75,0,0,0,10.6,12.82c1.5,1.26,3.08,2.5,4.7,3.75,1.36,1,3.37,3.93,5.51,5.93,1.45,1.39,2.94,2.39,4.34,2.12,10.45-1.93,6.35-25.13,5.72-30.46-1.19-9.93-3.33-20.09-8.41-28.24a35.39,35.39,0,0,0-3.37-4.59,10.09,10.09,0,0,0-10.84-3.18A18,18,0,0,0,556-190Z" transform="translate(-447 711)"/>
                  <path class="cls-53" d="M581.59-126.45c-2-5.23-5.1-23.13,5.26-17.14,5.18,3,8.45,8.28,13.09,11.81,5.51,4.21,11.4,8.12,15.72,13.55.67.83,1.31,2,.75,2.88-.74,1.21-2.59.59-3.8-.16l-11.86-7.34a17.19,17.19,0,0,1,8,11.69c.18,1.11.08,2.55-1,3-.89.35-1.82-.3-2.55-.91l-12.94-10.81a20.88,20.88,0,0,1,3.8,8.25c.35,1.58.1,3.78-1.5,4-1.17.2-2.13-.88-2.83-1.84C587.87-114.82,583.94-120.26,581.59-126.45Z" transform="translate(-447 711)"/>
                  <path class="cls-12" d="M555.11-194a21.56,21.56,0,0,0,.89,4c1.87,6.16,6.42,14,12.18,15a7.93,7.93,0,0,0,5.89-1.41c4.45-2.92,6.07-8,5.9-13.34A25.84,25.84,0,0,0,574.35-205c-3.59-4.12-10.16-6.06-14.68-3l-.65.47C555.3-204.45,554.57-198.83,555.11-194Z" transform="translate(-447 711)"/>
                  <path class="cls-15" d="M555.11-194a21.56,21.56,0,0,0,.89,4q-.68,1-1.26,2.16c-.13.26-.25.52-.37.78,0,0,0,0,0,.05-3.21,7.17-2.26,17.44.08,24.8,2.44,7.66,7.69,14.26,13.68,19.31,1.5,1.26,3.08,2.5,4.7,3.75,2,1.53,3,3.83,4.82,5.44-.33-.3-.28-2.74-.37-3.27a10.32,10.32,0,0,0-1-3.11,28.08,28.08,0,0,1-2.45-6.37c-1.2-4.77-1.48-9.7-1.95-14.58-.4-4.13-1.07-9-3-12.71-.23-.45-.46-.87-.67-1.3-1.73-3.16-3.14-5.54-2.81-9.72.26-3.77,1.27-7.54.71-11.28a13.25,13.25,0,0,0-.32-1.52,20.82,20.82,0,0,0-6.38-9.67c-.11-.11-.23-.2-.36-.31C555.3-204.45,554.57-198.83,555.11-194Z" transform="translate(-447 711)"/>
                  <path class="cls-10" d="M559.2-207.36c-2,3.14-2.32,7.4-1.9,11.21a21.56,21.56,0,0,0,.89,4,22.92,22.92,0,0,0-1.25,2.16c-.13.26-.26.51-.38.78,0,0,0,0,0,.05-3.21,7.17-2.25,17.44.08,24.8a39.39,39.39,0,0,0,9.54,15.43c4.15,4.19,8.5,8.08,10.24,13.93-1.91-3.36-5.41-5.44-8.29-7.86-6-5-11.24-11.65-13.68-19.31-2.34-7.36-3.29-17.63-.08-24.8,0,0,0,0,0-.05.12-.26.24-.52.37-.78q.59-1.12,1.26-2.16a21.56,21.56,0,0,1-.89-4c-.54-4.87.19-10.49,3.91-13.55Z" transform="translate(-447 711)"/>
                  <path class="cls-9" d="M556-213a10,10,0,0,0-.35,3.41,6.25,6.25,0,0,0,1.57,4c1.49,1.52,3.57.91,4.33-1.12C562.79-209.94,558.22-211.49,556-213Z" transform="translate(-447 711)"/>
                  <path class="cls-16" d="M565.74-202.85l.18.18a1.52,1.52,0,0,1-2.15,2.15l-.18-.18A1.52,1.52,0,0,1,565.74-202.85Z" transform="translate(-447 711)"/>
                  <path class="cls-11" d="M590.2-127.5a23.36,23.36,0,0,0,1,2.81c.17.37.77,2.19,1.23,2.22.72,0,.16-2.37.12-2.73-.13-1-.25-2-.37-3s1.4-1,1.52,0a2.51,2.51,0,0,0,0,.27,34.51,34.51,0,0,0,3.08,5.51,31.61,31.61,0,0,0,2.52,3.15c.47.52,1,1,1.47,1.51,1.19.3,1.45,0,.77-.91,0-1.68-2-4.55-2.74-6-1-2-2.14-3.93-3.33-5.83-.52-.83.8-1.58,1.32-.75a75.84,75.84,0,0,1,5.32,10c.59,1.36,2.46,4.14.67,5.33s-3.58-1.22-4.56-2.29a33.44,33.44,0,0,1-4-5.43c0,.26.05.52.05.78,0,1-.45,2.06-1.59,2.08s-1.74-.93-2.18-1.74a22.34,22.34,0,0,1-1.82-4.61A.76.76,0,0,1,590.2-127.5Z" transform="translate(-447 711)"/>
                </g>
                <g>
                  <path class="cls-9" d="M562.67-149.64l8.1,15.77a2.23,2.23,0,0,1,1.61.63c.69.68-.22,1.9-.92,1.21,0,0-.08-.05-.12-.09.36,1.09.73,2.18,1.1,3.27.31.92-1.09,1.51-1.4.59-.39-1.16-.78-2.32-1.18-3.48a2.09,2.09,0,0,0-.24,1.24,6.07,6.07,0,0,0,1.68,2.78c.64.74-.57,1.66-1.2.92-1.26-1.45-2.58-3.31-1.81-5.32a2.74,2.74,0,0,1,1-1.27q-4-7.83-8.05-15.66C560.82-149.92,562.23-150.5,562.67-149.64Z" transform="translate(-447 711)"/>
                  <path class="cls-10" d="M559.26-151.33a33.88,33.88,0,0,0-2.08-4.24c2.47,1.81,14.13,11.88,9.53,15.72a2.24,2.24,0,0,1-2.84-.29,6.43,6.43,0,0,1-1.52-2.68C561.25-145.75,560.4-148.57,559.26-151.33Z" transform="translate(-447 711)"/>
                </g>
              </g>
              <path class="cls-54" d="M581.52-149.94c2.48-6.45,4.25-21.09-1.51-26.62-4.79-4.6-14.42,1.64-20.15.54-6.64-1.29-13.15-4.28-19.88-3.53-6.94.78-12.88,5.48-17.26,10.93s-7.56,11.75-11.64,17.42a67.49,67.49,0,0,1-19.72,18.25c6.31,3.19,14.1,2.14,20.44-1s11.51-8.17,16.58-13.1l-4.2,18.57a45.28,45.28,0,0,0,19.49-27.07q-1.23,11.22-2.47,22.46a76,76,0,0,0,12.53-19.34,35.71,35.71,0,0,0-2,18.05,27,27,0,0,0,8.35-18.24c1.3,1.51,1.06,3.79.49,5.7s-1.42,3.84-1.11,5.81,2.46,3.79,4.23,2.88c1.24-.65,1.62-2.22,1.86-3.61L567.47-153a10.79,10.79,0,0,0,1.35,11,37.13,37.13,0,0,0,6.39-14.8c-.74,2.21-1.48,4.6-.78,6.83s3.52,3.89,5.44,2.55A5.1,5.1,0,0,0,581.52-149.94Z" transform="translate(-447 711)"/>
            </g>
          </g>
        </g>
      </g>
    </g>
  </g>
</svg>
