<svg id="圖層_19" data-name="圖層 19" xmlns="http://www.w3.org/2000/svg" viewBox="0 0 135.89 121"><defs><style>.cls-1{fill:none;stroke:#fff;stroke-miterlimit:10;stroke-width:10px;}.cls-2{fill:#fff;}</style></defs><path class="cls-1" d="M859.29,74H803.71a7.38,7.38,0,0,0-6.38,3.69l-27.79,48.12a7.42,7.42,0,0,0,0,7.38l27.79,48.12a7.38,7.38,0,0,0,6.38,3.69h55.58a7.38,7.38,0,0,0,6.38-3.69l27.79-48.12a7.42,7.42,0,0,0,0-7.38L865.67,77.69A7.38,7.38,0,0,0,859.29,74Z" transform="translate(-763.55 -69)"/><g id="圖層_21" data-name="圖層 21"><g id="圖層_24" data-name="圖層 24"><path class="cls-2" d="M827,108.5v12a4.49,4.49,0,0,1-4.5,4.5h-12a4.49,4.49,0,0,0-4.5,4.5h0a4.49,4.49,0,0,0,4.5,4.5h12a4.49,4.49,0,0,1,4.5,4.5v12a4.49,4.49,0,0,0,4.5,4.5h0a4.49,4.49,0,0,0,4.5-4.5v-12a4.49,4.49,0,0,1,4.5-4.5h12a4.49,4.49,0,0,0,4.5-4.5h0a4.49,4.49,0,0,0-4.5-4.5h-12a4.49,4.49,0,0,1-4.5-4.5v-12a4.49,4.49,0,0,0-4.5-4.5h0A4.49,4.49,0,0,0,827,108.5Z" transform="translate(-763.55 -69)"/></g></g></svg>