<svg id="圖層_19" data-name="圖層 19" xmlns="http://www.w3.org/2000/svg" viewBox="0 0 45.44 42"><defs><style>.cls-1{fill:none;stroke:#afd6e9;stroke-miterlimit:10;stroke-width:5px;}.cls-2{fill:#afd6e9;}</style></defs><path class="cls-1" d="M314.92,125H302.08a7.38,7.38,0,0,0-6.39,3.69l-6.42,11.12a7.37,7.37,0,0,0,0,7.38l6.42,11.12a7.38,7.38,0,0,0,6.39,3.69h12.84a7.38,7.38,0,0,0,6.39-3.69l6.42-11.12a7.37,7.37,0,0,0,0-7.38l-6.42-11.12A7.38,7.38,0,0,0,314.92,125Z" transform="translate(-285.78 -122.5)"/><g id="圖層_21" data-name="圖層 21"><g id="圖層_24" data-name="圖層 24"><path class="cls-2" d="M307,136.5v4a1.5,1.5,0,0,1-1.5,1.5h-4a1.5,1.5,0,0,0-1.5,1.5h0a1.5,1.5,0,0,0,1.5,1.5h4a1.5,1.5,0,0,1,1.5,1.5v4a1.5,1.5,0,0,0,1.5,1.5h0a1.5,1.5,0,0,0,1.5-1.5v-4a1.5,1.5,0,0,1,1.5-1.5h4a1.5,1.5,0,0,0,1.5-1.5h0a1.5,1.5,0,0,0-1.5-1.5h-4a1.5,1.5,0,0,1-1.5-1.5v-4a1.5,1.5,0,0,0-1.5-1.5h0A1.5,1.5,0,0,0,307,136.5Z" transform="translate(-285.78 -122.5)"/></g></g></svg>